<?xml version="1.0" standalone="no"?>
<!DOCTYPE svg PUBLIC "-//W3C//DTD SVG 1.1//EN" "http://www.w3.org/Graphics/SVG/1.1/DTD/svg11.dtd" >
<svg xmlns="http://www.w3.org/2000/svg" xmlns:xlink="http://www.w3.org/1999/xlink" version="1.1">
<metadata>
Created by FontForge 20170731 at Thu Feb  7 19:39:55 2002
 By Aleksey,,,
Copyright (c) 1993, 1999, 2001 Adobe Systems Incorporated.  All Rights Reserved.
</metadata>
<defs>
<font id="MonaLisaStd-Solid" horiz-adv-x="463" >
  <font-face 
    font-family="ITC Mona Lisa Std Solid"
    font-weight="400"
    font-stretch="normal"
    units-per-em="1000"
    panose-1="0 0 5 0 0 0 0 0 0 0"
    ascent="789"
    descent="-211"
    x-height="285"
    cap-height="790"
    bbox="-182 -395 964 979"
    underline-thickness="50"
    underline-position="-200"
    unicode-range="U+0020-FB02"
  />
<missing-glyph horiz-adv-x="500" 
d="M0 0v700h500v-700h-500zM250 395l170 255h-340zM280 350l170 -255v510zM80 50h340l-170 255zM50 605v-510l170 255z" />
    <glyph glyph-name="fi" unicode="fi" horiz-adv-x="426" 
d="M159 -134h-84v404h-63v15h63v367q0 25 0.5 38.5t6 36.5t15.5 36t31 23t50 10q22 0 62 -8v-53h-16q-22 45 -48 45q-14 0 -14 -16q-3 -16 -3 -64v-414h222v-15h-22v-254h55v-16h-195v16h56v254h-116v-405zM285 545h70q-27 -79 -27 -196v-20h-16v20q0 121 -27 196z" />
    <glyph glyph-name="fl" unicode="fl" horiz-adv-x="426" 
d="M159 270v-404h-84v404h-63v15h63v376q0 27 1 41t7 35t18 31.5t36 19t58 8.5q42 0 91 -14h72v-766h56v-16h-195v16h55v254h-115zM159 285h115v466q-32 24 -61 24q-16 0 -26.5 -6t-16 -13.5t-8 -23.5t-3 -27t-0.5 -34v-386z" />
    <glyph glyph-name=".notdef" horiz-adv-x="500" 
d="M0 0v700h500v-700h-500zM250 395l170 255h-340zM280 350l170 -255v510zM80 50h340l-170 255zM50 605v-510l170 255z" />
    <glyph glyph-name=".null" horiz-adv-x="0" 
 />
    <glyph glyph-name="nonmarkingreturn" horiz-adv-x="333" 
 />
    <glyph glyph-name="space" unicode=" " horiz-adv-x="200" 
 />
    <glyph glyph-name="exclam" unicode="!" horiz-adv-x="315" 
d="M217 774l-34 -536h-38l-41 520h-49v16h162zM157 113q24 0 42.5 -18t18.5 -44q0 -25 -18 -43t-43 -18q-26 0 -44 18t-18 43q0 26 18.5 44t43.5 18z" />
    <glyph glyph-name="quotedbl" unicode="&#x22;" 
d="M158 790h54q-16 -79 -16 -197v-19h-22v19q-2 127 -16 197zM251 790h53q-15 -79 -15 -197v-19h-22l-1 19q0 122 -15 197z" />
    <glyph glyph-name="numbersign" unicode="#" 
d="M212 377h95l43 112h30l-43 -112h106l-9 -26h-107l-35 -92h107l-10 -26h-107l-43 -114h-30l44 114h-95l-44 -114h-29l43 114h-108l9 26h109l35 92h-109l10 26h109l43 112h29zM298 351h-95l-35 -92h95z" />
    <glyph glyph-name="dollar" unicode="$" 
d="M272 911v-110q77 -8 126 -34l-1 41h15l5 -182h-14l-1 51q-43 60 -130 95v-366q96 -65 131 -120t35 -114q0 -69 -45.5 -119.5t-120.5 -62.5v-107h-16v105q-16 -1 -33 0v-105h-16v106q-59 5 -128 37v-62h-16v197h16v-53q19 -33 55.5 -60.5t72.5 -39.5v308
q-105 75 -149 134.5t-44 134.5q0 104 85 174q43 35 108 43v109h16v-107q23 0 33 -1v108h16zM207 454v331q-22 -2 -36 -6t-35 -17t-32 -43.5t-11 -76.5q0 -54 24.5 -97t89.5 -91zM256 417v360q-20 5 -33 7v-341zM272 265v-257q32 7 47 24q30 33 30 91q0 36 -15.5 67.5t-28 44
t-33.5 30.5zM256 5v273l-33 25v-298q16 -2 33 0z" />
    <glyph glyph-name="percent" unicode="%" horiz-adv-x="537" 
d="M164 734q65 0 112 -41.5t47 -108.5q0 -66 -44.5 -108.5t-111.5 -42.5q-72 0 -115.5 44t-43.5 106q0 72 58 119q39 32 98 32zM165 719q-40 0 -52.5 -29t-12.5 -112q0 -76 9 -99q5 -13 20.5 -22t33.5 -9q23 0 37 9t20 31t7 39t1 53q0 87 -13.5 113t-49.5 26zM365 294
q65 0 112.5 -42t47.5 -109q0 -65 -45 -108t-111 -43q-73 0 -116.5 45t-43.5 106q0 56 41 103.5t115 47.5zM366 278q-40 0 -52 -29t-12 -113q0 -29 0.5 -43t3.5 -34t9.5 -28.5t18.5 -15.5t30 -7q23 0 37 9t20 31t7 39.5t1 53.5q0 86 -13.5 111.5t-49.5 25.5zM524 758
l-491 -786l-19 13l492 786z" />
    <glyph glyph-name="ampersand" unicode="&#x26;" 
d="M358 257h72v-15q-34 -5 -47 -21.5t-32 -68.5l79 -136h41v-16h-138l-34 57q-30 -34 -54.5 -49.5t-58.5 -15.5q-63 0 -102 39.5t-39 95.5q0 32 11.5 59t34 48t36.5 31t38 24q-26 41 -36 66.5t-10 56.5q0 46 30 76.5t80 30.5t81 -27.5t31 -66.5q0 -34 -26 -65t-58 -46
l83 -144q13 33 18 87zM223 374l26 -47q49 24 49 90q0 39 -20 62.5t-44 23.5q-17 0 -31 -12t-14 -30q0 -24 34 -87zM292 71l-119 203q-20 -19 -26 -52.5t-6 -110.5q0 -31 2.5 -50t15.5 -35.5t37 -16.5q26 0 52.5 20t43.5 42z" />
    <glyph glyph-name="quotesingle" unicode="'" horiz-adv-x="315" 
d="M131 790h53q-15 -79 -15 -197v-19h-23v19q0 116 -15 197z" />
    <glyph glyph-name="parenleft" unicode="(" horiz-adv-x="241" 
d="M176 804h29q-40 -97 -64.5 -204.5t-30 -167t-5.5 -105.5q0 -47 5.5 -106.5t29.5 -167t65 -203.5h-29q-99 225 -99 477t99 477z" />
    <glyph glyph-name="parenright" unicode=")" horiz-adv-x="241" 
d="M65 -150h-29q40 96 64.5 204t29.5 167t5 106q0 86 -21.5 215t-77.5 262h29q99 -229 99 -477q0 -245 -99 -477z" />
    <glyph glyph-name="asterisk" unicode="*" 
d="M243 669v-15q69 25 119 61l17 -45q-40 -5 -131 -34q46 -69 86 -106l-40 -27q-20 56 -63 120q-39 -54 -62 -120l-40 27q31 27 84 105q-67 25 -129 35l18 45q42 -30 119 -60v15q0 68 -14 120h49q-13 -56 -13 -121z" />
    <glyph glyph-name="plus" unicode="+" 
d="M432 254h-187v-186h-27v186h-187v28h187v186h27v-186h187v-28z" />
    <glyph glyph-name="comma" unicode="," horiz-adv-x="185" 
d="M97 -6q-33 -1 -50.5 16.5t-17.5 41.5q0 28 18.5 44.5t41.5 16.5q29 0 47 -21.5t18 -47.5q0 -42 -31.5 -77t-71.5 -35q-5 0 -21 4q48 12 67 58z" />
    <glyph glyph-name="hyphen" unicode="-" horiz-adv-x="333" 
d="M20 161h293v-27h-293v27z" />
    <glyph glyph-name="period" unicode="." horiz-adv-x="185" 
d="M93 113q25 0 43 -18t18 -44q0 -25 -18 -43t-43 -18q-26 0 -44 18t-18 43t18 43.5t44 18.5z" />
    <glyph glyph-name="slash" unicode="/" horiz-adv-x="434" 
d="M372 804h28l-385 -954h-28z" />
    <glyph glyph-name="zero" unicode="0" 
d="M226 600q52 0 93 -28.5t65 -74.5t36 -100t12 -111q0 -127 -56 -210.5t-146 -83.5q-88 0 -143.5 83.5t-55.5 212.5q0 78 20 147t66 117t109 48zM221 583q-48 0 -66 -45q-15 -36 -15 -198q0 -223 14 -270q0 -3 6 -16t25 -29t45 -16q59 0 74 49q15 45 15 210q0 233 -24 276
q-23 39 -74 39z" />
    <glyph glyph-name="one" unicode="1" 
d="M302 593v-577h61v-16h-234v16h71v499q-81 -54 -113 -78l-6 15q151 103 253 190l9 -13z" />
    <glyph glyph-name="two" unicode="2" 
d="M391 94l-5 -129h-16l1 30q-36 5 -148 5h-179v11q107 79 146 112.5t62 69.5q41 64 41 213q0 95 -18.5 136t-64.5 41q-36 0 -62.5 -16t-39.5 -40.5t-18.5 -47.5t-5.5 -44q0 -40 17 -68t50 -28q29 0 46 22q10 13 15 33l11 -6q-6 -34 -28 -50.5t-46 -16.5q-38 0 -70.5 30
t-32.5 83q0 63 47.5 114.5t125.5 51.5q75 0 132.5 -51t57.5 -127q0 -34 -9 -67t-21.5 -59.5t-40 -58t-48 -53t-63 -55.5t-68.5 -54t-79 -59h35q20 0 54.5 2t97 11t107.5 24l2 41h15z" />
    <glyph glyph-name="three" unicode="3" 
d="M64 471v141h15v-39q51 27 116 27q87 0 136.5 -47t49.5 -98q0 -86 -119 -123q40 -12 68.5 -33.5t42 -46.5t19.5 -46t6 -41q0 -71 -55 -122t-136 -51q-53 0 -145 35v-43h-16v145h16v-38q33 -44 75.5 -63t74.5 -19q25 0 39 10.5t23.5 50.5t9.5 115q0 86 -17 112.5t-66 26.5
q-27 0 -62 -8v-41h-15v121h15v-41q27 -16 70 -16q40 0 53 24.5t13 89.5q0 72 -15 101t-50 29q-34 0 -71 -21t-60 -52v-39h-15z" />
    <glyph glyph-name="four" unicode="4" 
d="M347 589v-413h13q30 0 53 15v32h15v-118h-15v42q-22 11 -53 11h-13v-142h66v-16h-244v16h78v142h-74q-125 0 -172 -11l-5 11q99 112 151 185l222 308l12 -9zM247 175v272q-110 -152 -176 -272h176z" />
    <glyph glyph-name="five" unicode="5" 
d="M44 -8l-4 151h16l1 -44q33 -47 74.5 -68.5t68.5 -21.5q49 0 71 36q21 35 21 158q0 99 -15.5 135.5t-67.5 36.5q-88 0 -154 -79l-12 10q103 146 171 298q33 -18 61 -24q22 -5 49 -5q39 0 80 19l8 -9l-25 -26q-14 -16 -29 -20.5t-66 -4.5t-88 10q-19 -37 -51 -94
q-46 -81 -51 -89q55 31 114 31t105 -34q83 -62 83 -160q0 -86 -57.5 -146t-147.5 -60q-76 0 -140 44l1 -44h-16z" />
    <glyph glyph-name="six" unicode="6" 
d="M373 609l4 -135h-16l-1 41q-25 33 -58 50.5t-61 17.5q-67 0 -83 -71q-11 -50 -11 -253q0 -165 13.5 -207.5t81.5 -42.5q35 0 51 10.5t25.5 50.5t9.5 124q0 118 -17 146q-13 23 -49 23q-23 0 -42 -10.5t-28.5 -21t-25.5 -32.5l-13 10q16 22 27.5 35t35.5 25t54 12
q70 0 114.5 -55.5t44.5 -131.5q0 -87 -55.5 -144.5t-130.5 -57.5q-84 0 -140.5 74t-56.5 216q0 86 21.5 156t69.5 116t116 46q54 0 105 -23l-1 32h16z" />
    <glyph glyph-name="seven" unicode="7" 
d="M44 470l17 156h16l-3 -27l24 3q8 1 30 1q34 0 55.5 -4.5t69.5 -19.5q41 -15 65 -15q41 0 78 55l12 -10q-28 -36 -40.5 -54t-27.5 -47.5t-29 -71.5q-20 -61 -37.5 -200.5t-17.5 -219.5h57v-16h-166q8 192 79 362q22 51 55.5 103.5t57.5 78.5q-26 -8 -48 -8q-48 0 -86 9
q-54 13 -79 13q-20 0 -56 -6l-9 -82h-17z" />
    <glyph glyph-name="eight" unicode="8" 
d="M297 350q127 -69 127 -175q0 -28 -10.5 -57.5t-32 -59t-62.5 -48t-94 -18.5q-82 0 -134 42t-52 110q0 50 30.5 92.5t80.5 72.5q-41 24 -66.5 60.5t-25.5 79.5q0 21 8 44.5t26 48.5t54 41.5t84 16.5q76 0 116 -41t40 -91q0 -83 -89 -118zM281 359q31 15 46 35q23 33 23 77
q0 54 -37 84t-83 30q-20 0 -40 -6t-38.5 -26t-18.5 -52q0 -49 47 -85q47 -37 101 -57zM164 298q-47 -23 -68 -66t-21 -82q0 -63 42.5 -102t114.5 -39q53 0 78 33q25 32 25 81q0 60 -37.5 94.5t-133.5 80.5z" />
    <glyph glyph-name="nine" unicode="9" 
d="M87 -24v153h16v-44q20 -37 51 -56.5t62 -19.5q26 0 44 7.5t27.5 21.5t13.5 28t6 34q8 81 8 207q0 197 -15 234q-18 42 -76 42t-73 -37t-15 -142q0 -86 2 -112.5t10 -41.5q14 -28 51 -28q66 0 100 75l14 -7q-38 -85 -120 -85q-22 0 -46 7.5t-51 25.5t-44.5 56t-17.5 91
q0 50 14.5 89t35.5 62t47.5 38t48.5 20.5t41 5.5q41 0 81.5 -20.5t63.5 -52.5q54 -74 54 -221q0 -155 -58.5 -234.5t-150.5 -79.5q-54 0 -108 27v-43h-16z" />
    <glyph glyph-name="colon" unicode=":" horiz-adv-x="185" 
d="M93 113q25 0 43 -18t18 -44q0 -25 -18 -43t-43 -18q-26 0 -44 18t-18 43t18 43.5t44 18.5zM93 293q25 0 43 -18t18 -43q0 -26 -18 -44t-43 -18q-26 0 -44 18.5t-18 43.5t18 43t44 18z" />
    <glyph glyph-name="semicolon" unicode=";" horiz-adv-x="185" 
d="M97 -6q-34 -1 -51 16t-17 42q0 28 18.5 44.5t41.5 16.5q29 0 47 -21.5t18 -47.5q0 -42 -31.5 -77t-71.5 -35q-5 0 -21 4q47 12 67 58zM92 293q26 0 43.5 -18t17.5 -43t-17.5 -43.5t-43.5 -18.5t-44 18t-18 44q0 25 18 43t44 18z" />
    <glyph glyph-name="less" unicode="&#x3c;" horiz-adv-x="592" 
d="M505 460v-28l-377 -162l377 -162v-29l-408 177v28z" />
    <glyph glyph-name="equal" unicode="=" 
d="M432 299h-401v28h401v-28zM432 209h-401v28h401v-28z" />
    <glyph glyph-name="greater" unicode="&#x3e;" horiz-adv-x="592" 
d="M88 79v29l376 162l-376 162v28l408 -176v-28z" />
    <glyph glyph-name="question" unicode="?" horiz-adv-x="481" 
d="M177 477l7 -13q-19 -12 -38 -12q-45 0 -81 44.5t-36 110.5q0 80 58 127.5t128 47.5q82 0 152 -62.5t70 -151.5q0 -101 -96 -164q-9 -6 -24 -15q-71 -47 -82 -61l-10 -13q-15 -23 -15 -47q0 -27 29 -43l-4 -13q-22 4 -34.5 20.5t-12.5 39.5q0 45 53 101q46 48 59 82
q28 67 28 140q0 172 -119 172q-65 0 -104.5 -50.5t-39.5 -118.5q0 -57 25.5 -94t56.5 -37q13 0 30 10zM206 113q25 0 43 -18t18 -44q0 -25 -17.5 -43t-43.5 -18t-44 18t-18 43t18 43.5t44 18.5z" />
    <glyph glyph-name="at" unicode="@" horiz-adv-x="515" 
d="M320 406h63l-26 -169q-4 -28 -4 -31q0 -21 19 -21q27 0 54.5 34.5t27.5 94.5q0 78 -52.5 130.5t-138.5 52.5q-95 0 -157 -62t-62 -152q0 -88 59.5 -153t157.5 -65q53 0 100 16l1 -22q-49 -17 -102 -17q-79 0 -137 38.5t-83 92t-25 110.5q0 103 72 170.5t175 67.5
q91 0 154 -56.5t63 -147.5q0 -69 -34.5 -111.5t-82.5 -42.5q-24 0 -46 13t-22 46q0 17 1 28q-36 -80 -96 -80q-37 0 -54 27.5t-17 65.5q0 57 33 100.5t90 43.5q46 0 62 -44zM255 390q-19 0 -31.5 -18.5t-17.5 -46.5t-6.5 -45.5t-1.5 -29.5q0 -57 22 -57q24 0 54.5 53
t30.5 83q0 18 -14 39.5t-36 21.5z" />
    <glyph glyph-name="A" unicode="A" horiz-adv-x="630" 
d="M341 790l158 -509h101v-16h-96l78 -249h56v-16h-232v16h69l-79 249h-232q-48 -121 -50 -249h70v-16h-193v16h57q32 67 54 128l41 121q-36 -1 -88 -24l21 54q28 -13 73 -14l177 509h15zM391 281l-106 343l-116 -343h222z" />
    <glyph glyph-name="B" unicode="B" horiz-adv-x="556" 
d="M102 265h-76v16h76v493h-71v16h206q35 0 58 -2t65 -18t77 -47q46 -40 67 -97.5t21 -106.5q0 -114 -90 -190q-38 -31 -99 -54q95 -14 134 -54q41 -41 41 -90q0 -52 -48 -91.5t-154 -39.5h-278v16h71v249zM204 774v-493h33q98 0 132 29q39 34 39 217q0 70 -5.5 113.5
t-15.5 71.5t-32.5 41t-47.5 17t-70 4h-33zM204 265v-249h100q55 0 79.5 23t24.5 99q0 87 -40 109q-34 18 -131 18h-33z" />
    <glyph glyph-name="C" unicode="C" horiz-adv-x="556" 
d="M532 804l4 -166h-16v16q0 30 -46 73q-54 49 -137 49q-51 0 -101 -22.5t-62 -56.5q-23 -62 -23 -348q0 -217 10 -248q13 -40 75 -68t122 -28q88 0 176 69l-10 -63q-81 -23 -141 -23q-148 0 -236 88q-115 117 -115 306q0 79 22.5 153.5t63.5 134t105 95.5t141 36
q42 0 72.5 -8t81.5 -29l-1 40h15z" />
    <glyph glyph-name="D" unicode="D" horiz-adv-x="667" 
d="M97 16v758h-71v16h251q42 0 72 -4t77 -26.5t89 -64.5q120 -122 120 -295q0 -117 -50.5 -206t-116.5 -137q-79 -57 -206 -57h-236v16h71zM200 774v-758h62q66 0 111 15q28 9 41.5 16t36 30t33 57.5t19.5 99t9 153.5q0 211 -46 307q-38 80 -194 80h-72z" />
    <glyph glyph-name="E" unicode="E" horiz-adv-x="481" 
d="M204 774v-493h19q84 0 142 20v39h16v-141h-16v38q-67 28 -142 28h-19v-249h28q62 0 124 14.5t97 38.5v35h16v-128h-16v24h-422v16h71v249h-76v16h76v493h-71v16h420v22h15l3 -124h-16l-1 32q-32 25 -93.5 39.5t-118.5 14.5h-36z" />
    <glyph glyph-name="F" unicode="F" 
d="M204 774v-493h20q81 0 156 22v44h15v-141h-15v41q-57 18 -156 18h-20v-249h102v-16h-275v16h71v249h-76v16h76v493h-71v16h414l-1 22h16l2 -124h-15l-1 33q-33 24 -94.5 38.5t-117.5 14.5h-30z" />
    <glyph glyph-name="G" unicode="G" horiz-adv-x="630" 
d="M541 271v-255h52v-16h-50q-14 0 -96 -4q-80 -4 -93 -4q-140 0 -231 109.5t-91 283.5q0 57 10.5 113t36.5 111.5t64.5 97.5t100 68t137.5 26q80 0 169 -35l-1 46h16l2 -188h-16v24q0 35 -58 85q-59 51 -143 51q-41 0 -87.5 -18t-67.5 -51q-44 -69 -44 -326q0 -240 26 -297
q15 -33 62 -58t133 -25q29 0 67 4v258h-107v16h280v-16h-71z" />
    <glyph glyph-name="H" unicode="H" horiz-adv-x="611" 
d="M201 285h211v489h-71v16h244v-16h-71v-489h76v-15h-76v-254h71v-16h-244v16h71v254h-211v-254h71v-16h-245v16h71v254q-34 -6 -71 -23v46q26 -7 71 -8v489h-71v16h245v-16h-71v-489z" />
    <glyph glyph-name="I" unicode="I" horiz-adv-x="296" 
d="M97 774h-71v16h244v-16h-71v-758h71v-16h-244v16h71v758z" />
    <glyph glyph-name="J" unicode="J" horiz-adv-x="296" 
d="M-14 -155l-3 57h14q27 -33 55 -33q18 0 28.5 11t13.5 23q7 31 7 143v728h-90v16h263v-16h-71v-728q0 -36 -1 -53t-7 -40t-20 -39t-38 -32q-63 -42 -151 -37z" />
    <glyph glyph-name="K" unicode="K" horiz-adv-x="574" 
d="M254 308l252 -292h65v-16h-235v16h38l-164 203l-11 -25v-178h71v-16h-244v16h71v758h-71v16h244v-16h-71v-536q48 83 125.5 266.5t97.5 269.5h-65v16h214v-16h-65q-29 -43 -130.5 -233t-121.5 -233z" />
    <glyph glyph-name="L" unicode="L" horiz-adv-x="444" 
d="M199 774v-758h22q92 0 188 49v40h16v-133h-16v28h-383v16h71v758h-71v16h256v-16h-83z" />
    <glyph glyph-name="M" unicode="M" horiz-adv-x="778" 
d="M170 790l237 -476l163 476h182v-16h-71v-758h71v-16h-244v16h71v748l-209 -607l-232 466v-163q0 -224 10 -331q6 -68 17 -113h71v-16h-206v16h71q10 67 15 173q6 66 6 271v196l-58 118h-62v16h168z" />
    <glyph glyph-name="N" unicode="N" horiz-adv-x="611" 
d="M167 790l328 -591v78q0 219 -5 331t-22 166h-65v16h191v-16h-43q-10 -31 -24 -158q-2 -21 -9 -163.5t-7 -180.5v-307l-364 652v-34q0 -325 3 -415t20 -152h71v-16h-209v16h64q18 89 23 181q3 50 7.5 211t4.5 184v54l-70 128h-61v16h167z" />
    <glyph glyph-name="O" unicode="O" horiz-adv-x="667" 
d="M339 801q148 0 235 -154q61 -110 61 -253q0 -174 -84.5 -290t-218.5 -116q-86 0 -156 58t-107 149t-37 191q0 86 27 170t74 146q32 41 79 65.5t75 29t52 4.5zM339 784q-19 0 -38 -3.5t-43.5 -13.5t-45.5 -31.5t-33 -53.5q-14 -36 -21 -143.5t-7 -177.5q0 -199 28 -264
q7 -17 15.5 -30t25.5 -28.5t47 -24.5t70 -9q109 0 144 88q32 78 32 335q0 161 -17 233q-14 62 -56 92.5t-101 30.5z" />
    <glyph glyph-name="P" unicode="P" horiz-adv-x="519" 
d="M204 270v-254h102v-16h-275v16h71v254h-76v15h76v489h-71v16h213q134 0 204.5 -79.5t70.5 -194.5q0 -112 -71 -179t-188 -67h-56zM204 774v-489h52q92 0 117 41q29 47 29 210q0 104 -14 153.5t-46 67t-99 17.5h-39z" />
    <glyph glyph-name="Q" unicode="Q" horiz-adv-x="667" 
d="M622 18l6 -17q-93 -45 -206 -141l-9 14l15 14q-70 85 -173 85q-61 0 -118 -46l-11 13q69 53 113 67q-24 12 -40 22t-46 39.5t-55 70.5q-66 110 -66 250q0 48 9 100t32.5 108.5t57.5 101t89.5 73.5t123.5 29q125 0 208 -118t83 -287q0 -199 -106 -319q-42 -48 -116 -76
q24 -9 37 -17t52 -38q90 57 120 72zM391 12q31 9 48 18q44 24 59 115t15 289q0 50 -0.5 80.5t-4 72t-10.5 66.5t-19.5 53t-30.5 43t-45.5 25t-62.5 10q-22 0 -45 -5.5t-52 -20t-50.5 -48t-27.5 -81.5q-14 -126 -14 -268q0 -234 38 -293q26 -37 72 -52q49 7 70 7q25 0 60 -11
z" />
    <glyph glyph-name="R" unicode="R" horiz-adv-x="574" 
d="M204 270v-254h71v-16h-244v16h71v254h-76v15h76v489h-71v16h222q119 0 204.5 -80t85.5 -190q0 -29 -9.5 -62t-30.5 -71.5t-65.5 -69.5t-105.5 -45q27 -6 45 -12.5t38 -20.5t32 -34.5t20 -55t8 -80.5q0 -24 1 -33.5t6 -16t16 -6.5q37 0 69 50l13 -10q-12 -17 -20 -27
t-31 -22t-52 -12q-8 0 -19.5 2t-31 8.5t-34 23t-17.5 40.5q-1 9 -2.5 58.5t-2.5 58.5q-2 17 -5.5 27.5t-14 26.5t-35.5 24.5t-62 8.5h-49zM204 774v-489h49q40 0 59 1.5t43.5 9.5t37.5 27t20 51q13 62 13 147q0 81 -11 132.5t-35.5 77.5t-53 34.5t-73.5 8.5h-49z" />
    <glyph glyph-name="S" unicode="S" horiz-adv-x="482" 
d="M427 804l2 -179h-16v48q-30 48 -86 79.5t-103 31.5q-51 0 -86.5 -36t-35.5 -105q0 -47 20 -85.5t52 -68t94 -74.5q54 -39 79 -59t54 -51t40 -62.5t11 -71.5q0 -81 -58.5 -132t-139.5 -51q-92 0 -156 34v-65h-16v197h16v-49q34 -48 80 -74t87 -26q29 0 50 12.5t31 32
t14.5 37.5t4.5 34q0 57 -38.5 104t-120.5 107q-53 39 -74 55t-44.5 42.5t-37.5 57.5q-20 45 -20 92q0 36 13.5 73.5t39 71.5t70.5 55.5t102 21.5q91 0 157 -36l-1 39h16z" />
    <glyph glyph-name="T" unicode="T" horiz-adv-x="389" 
d="M252 774v-758h77v-16h-257v16h77v758q-64 -6 -130 -56v-55h-16v141h16v-14h351v14h16v-141h-16v55q-31 27 -54 37.5t-64 18.5z" />
    <glyph glyph-name="U" unicode="U" horiz-adv-x="630" 
d="M197 774v-526q0 -155 17 -190q26 -53 106 -53q111 0 165 87q18 29 25 81.5t7 197.5q0 266 -30 403h-71v16h229v-16h-76q-11 -55 -18 -136.5t-9.5 -147.5t-7.5 -229q-2 -61 -5 -91t-19.5 -69.5t-48.5 -65.5q-60 -47 -141 -47q-95 0 -159 52q-31 24 -47 66.5t-18 70
t-2 71.5v526h-70v16h244v-16h-71z" />
    <glyph glyph-name="V" unicode="V" horiz-adv-x="611" 
d="M165 774l188 -603l13 47q100 364 117 556h-68v16h217v-16h-64q-15 -34 -36 -92t-37 -106.5t-29 -89.5t-13 -42q-22 -74 -73 -239l-61 -217h-16l-248 786h-67v16h265v-16h-88z" />
    <glyph glyph-name="W" unicode="W" horiz-adv-x="944" 
d="M174 774l189 -608l94 298l-96 310h-58v16h356v-16h-65q-28 -54 -71 -178l136 -431l12 40q33 107 52 171t45 178.5t39 219.5h-66v16h223v-16h-71q-24 -46 -57 -136q-80 -218 -149 -438l-66 -209h-17l-138 445l-143 -445h-13l-249 783h-65v16h247v-16h-69zM545 774h-73
l42 -149q25 86 31 149z" />
    <glyph glyph-name="X" unicode="X" horiz-adv-x="574" 
d="M175 774l133 -297q77 175 106 297h-70v16h219v-16h-71q-34 -45 -89 -148q-27 -51 -88 -169l197 -441h72v-16h-260v16h73l-145 325q-95 -238 -115 -325h74v-16h-212v16h60q70 92 186 344l-185 414h-61v16h248v-16h-72z" />
    <glyph glyph-name="Y" unicode="Y" horiz-adv-x="611" 
d="M169 774l189 -452q41 101 76 240.5t42 211.5h-68v16h217v-16h-64q-52 -111 -90 -206l-108 -276v-276h89v-16h-272v16h80v265l-204 493h-70v16h263v-16h-80z" />
    <glyph glyph-name="Z" unicode="Z" horiz-adv-x="574" 
d="M523 774l-366 -758h34q78 0 177 13.5t166 45.5l2 44h16l-5 -151h-16l1 26q-39 6 -250 6h-266v16h30l363 758h-25q-71 0 -165 -17q-61 -10 -114 -38l-1 -37h-16l2 126h16l-1 -18h454v-16h-36z" />
    <glyph glyph-name="bracketleft" unicode="[" horiz-adv-x="278" 
d="M146 777v-900h88v-24h-117v948h122v-24h-93z" />
    <glyph glyph-name="backslash" unicode="\" horiz-adv-x="434" 
d="M63 804l384 -954h-28l-384 954h28z" />
    <glyph glyph-name="bracketright" unicode="]" horiz-adv-x="278" 
d="M132 -123v900h-88v24h117v-948h-122v24h93z" />
    <glyph glyph-name="asciicircum" unicode="^" horiz-adv-x="592" 
d="M86 464h-35l227 326h37l226 -326h-36l-210 304z" />
    <glyph glyph-name="underscore" unicode="_" horiz-adv-x="592" 
d="M0 -75h592v-50h-592v50z" />
    <glyph glyph-name="grave" unicode="`" horiz-adv-x="500" 
d="M202 452l102 -107l-12 -13l-111 96z" />
    <glyph glyph-name="a" unicode="a" horiz-adv-x="370" 
d="M209 198v74q-12 5 -25 5q-43 0 -84 -24q-20 -11 -35 -35h-12l4 54q56 21 114 21q44 0 72 -11t38.5 -32.5t13 -35.5t2.5 -38v-111q0 -28 3 -39t13 -11q19 0 50 36l12 -9q-12 -16 -21 -25t-28 -17t-43 -8q-26 0 -42 10t-20.5 18t-8.5 23q-48 -51 -103 -51q-39 0 -65 22.5
t-26 65.5q0 55 43.5 91t98.5 36q22 0 49 -9zM209 68v114q-29 9 -53 9q-30 0 -36.5 -15.5t-6.5 -77.5q0 -61 3 -73q2 -12 16 -12q16 0 39 16t38 39z" />
    <glyph glyph-name="b" unicode="b" horiz-adv-x="389" 
d="M138 782v-548q38 59 93 59q48 0 88 -38t40 -103q0 -41 -17 -74t-43.5 -50.5t-53 -26.5t-50.5 -9q-34 0 -71 16t-55 41q-13 17 -16 39t-3 74v604h-55v16h143zM138 204v-177q27 -18 56 -18q41 0 54.5 23.5t13.5 95.5q0 83 -4 116q-2 17 -11.5 25t-19.5 8q-3 0 -7 -0.5
t-14.5 -4.5t-20.5 -11t-23 -22t-24 -35z" />
    <glyph glyph-name="c" unicode="c" horiz-adv-x="296" 
d="M272 306v-118h-16v27q-22 33 -50 47.5t-46 14.5q-12 0 -19 -6t-12.5 -36.5t-5.5 -89.5q0 -65 5.5 -93t15.5 -35.5t36 -7.5q56 0 109 50l10 -10q-50 -57 -118 -57q-70 0 -112 45t-42 107q0 61 39.5 105t105.5 44q41 0 84 -17v30h16z" />
    <glyph glyph-name="d" unicode="d" horiz-adv-x="407" 
d="M340 782v-766h55v-16h-142v35q-40 -43 -95 -43q-44 0 -74.5 27t-42 60t-11.5 66q0 64 41 106t92 42q46 0 90 -41v514h-56v16h143zM253 57v167q-13 22 -37.5 37.5t-48.5 15.5q-17 0 -26 -9q-15 -14 -15 -139q0 -77 7 -98.5t35 -21.5q42 0 85 48z" />
    <glyph glyph-name="e" unicode="e" horiz-adv-x="333" 
d="M315 161h-191q-4 -66 2.5 -100t19.5 -43t39 -9q28 0 64 16.5t66 57.5h9v-36q-67 -55 -142 -55q-73 0 -114 45t-41 103q0 59 43 106t112 47q75 0 111 -52q22 -34 22 -80zM124 177h138q8 100 -68 100q-23 0 -36.5 -5.5t-20.5 -22t-9 -29t-4 -43.5z" />
    <glyph glyph-name="f" unicode="f" horiz-adv-x="241" 
d="M163 270v-404h-88v404h-63v15h63v366q0 27 1 43.5t6.5 38t16.5 33.5t31.5 21t50.5 9q25 0 60 -8v-53h-18q-21 44 -45 44q-10 0 -12 -10q-3 -12 -3 -71v-413h73v-44h-13q-9 17 -22 22.5t-38 6.5z" />
    <glyph glyph-name="g" unicode="g" horiz-adv-x="408" 
d="M254 285h141v-15h-53v-193q0 -49 2.5 -60.5t15.5 -18.5q-35 -140 -178 -140q-30 0 -85 11q-34 7 -53 7v66h7q26 -36 68 -51.5t74 -15.5q23 0 35.5 4t18 17.5t6.5 25.5t1 42v68q-40 -32 -92 -32q-64 0 -98 44.5t-34 100.5q0 55 33.5 101.5t100.5 46.5q55 0 90 -40v32z
M254 57v158q-23 62 -89 62q-22 0 -29 -17q-10 -24 -10 -129q0 -77 6 -95.5t35 -18.5q56 0 87 40z" />
    <glyph glyph-name="h" unicode="h" horiz-adv-x="407" 
d="M155 782v-578q11 18 16.5 26.5t20.5 27t32 27t36 8.5q41 0 65 -29q23 -28 23 -82v-166h56v-16h-143v247q0 27 -13 27q-22 0 -50 -32q-21 -24 -43 -76v-150h51v-16h-194v16h55v750h-55v16h143z" />
    <glyph glyph-name="i" unicode="i" horiz-adv-x="222" 
d="M155 270v-254h55v-16h-198v16h55v254h-55v15h165v-15h-22zM78 545h69q-26 -76 -26 -196v-20h-16v20q0 116 -27 196z" />
    <glyph glyph-name="j" unicode="j" horiz-adv-x="222" 
d="M160 270v-269q0 -44 -3.5 -64t-14.5 -37q-27 -44 -84 -44q-3 0 -16.5 1t-15.5 1h-22v77h14q1 -63 38 -63q12 0 14 11q3 15 3 52v335h-55v15h164v-15h-22zM86 545h69q-26 -78 -26 -196v-20h-16v20q0 116 -27 196z" />
    <glyph glyph-name="k" unicode="k" horiz-adv-x="445" 
d="M155 782v-628l46 28q38 24 55.5 43.5t25.5 44.5h-37v15h156v-15h-38q-61 -32 -136 -88l162 -166h51v-16h-158l-127 137v-121h55v-16h-198v16h55v750h-55v16h143z" />
    <glyph glyph-name="l" unicode="l" horiz-adv-x="222" 
d="M155 782v-766h55v-16h-198v16h55v750h-55v16h143z" />
    <glyph glyph-name="m" unicode="m" horiz-adv-x="592" 
d="M155 285v-69q45 77 103 77q40 0 65 -32q17 -21 21 -50q44 82 105 82q41 0 63 -31t22 -71v-175h55v-16h-143v239q0 35 -15 35q-8 0 -21 -8t-32 -32.5t-34 -60.5v-157h55v-16h-142v239q0 35 -14 35q-7 0 -21.5 -8.5t-35.5 -34.5t-31 -63v-152h55v-16h-198v16h55v254h-55v15
h143z" />
    <glyph glyph-name="n" unicode="n" horiz-adv-x="407" 
d="M155 285v-67q44 75 100 75q37 0 60 -26q20 -22 27 -42.5t7 -53.5v-155h55v-16h-143v231q0 15 -0.5 22t-5.5 14t-14 7q-7 0 -17 -3.5t-30.5 -27.5t-38.5 -65v-162h55v-16h-198v16h55v254h-55v15h143z" />
    <glyph glyph-name="o" unicode="o" horiz-adv-x="370" 
d="M182 293q67 0 114 -41t47 -110q0 -24 -7.5 -48t-24 -48t-48.5 -39t-76 -15q-45 0 -78 14.5t-50 38t-24.5 47.5t-7.5 49q0 72 47 112t108 40zM181 277q-33 0 -45.5 -25.5t-12.5 -104.5q0 -90 10.5 -114t47.5 -24q42 0 53.5 25t11.5 99q0 91 -10.5 117.5t-54.5 26.5z" />
    <glyph glyph-name="p" unicode="p" horiz-adv-x="408" 
d="M152 347v-97q12 13 20.5 20.5t27.5 15t41 7.5q51 0 93.5 -41t42.5 -105q0 -65 -42.5 -110t-102.5 -45q-47 0 -80 36v-154h55v-16h-198v16h55v457h-55v16h143zM152 226v-173q33 -44 75 -44q33 0 42 28q11 32 11 112q0 67 -11.5 97.5t-37.5 30.5q-40 0 -79 -51z" />
    <glyph glyph-name="q" unicode="q" horiz-adv-x="408" 
d="M340 270v-396h55v-16h-198v16h56v153q-39 -35 -92 -35q-58 0 -94.5 42t-36.5 106q0 68 38.5 110.5t93.5 42.5q53 0 91 -41v33h142v-15h-55zM253 51v174q-34 52 -84 52q-18 0 -26.5 -11t-12.5 -44.5t-4 -102.5q0 -70 7 -90t37 -20q46 0 83 42z" />
    <glyph glyph-name="r" unicode="r" horiz-adv-x="296" 
d="M155 285v-59q35 59 80 59q18 0 36 -6v33h15v-153h-15q0 49 -17.5 73t-38.5 24q-29 0 -49 -45q-11 -26 -11 -96v-99h75v-16h-218v16h55v254h-55v15h143z" />
    <glyph glyph-name="s" unicode="s" horiz-adv-x="278" 
d="M229 308l2 -112h-16l-1 29q-37 54 -75 54q-36 0 -36 -34q0 -20 16 -34t57 -36q45 -24 63 -46t18 -51q0 -32 -26 -59t-87 -27q-50 0 -92 21v-26h-16v102h16v-33q48 -47 92 -47q21 0 29.5 10t8.5 22q0 20 -20.5 37t-69.5 44q-64 37 -64 87q0 35 28.5 59.5t79.5 24.5
q44 0 78 -15l-1 30h16z" />
    <glyph glyph-name="t" unicode="t" horiz-adv-x="241" 
d="M152 285h86v-57h-17q-9 20 -23 30.5t-46 11.5v-186q0 -47 3.5 -60t17.5 -13q24 0 57 34l10 -9q-39 -44 -90 -44q-30 0 -48.5 7.5t-26 24t-9 29t-1.5 37.5v180h-57v15h57v293h87v-293z" />
    <glyph glyph-name="u" unicode="u" horiz-adv-x="408" 
d="M340 285v-269h55v-16h-142v47q-19 -20 -30 -29.5t-30.5 -17.5t-43.5 -8q-32 0 -51.5 8.5t-27.5 27t-9.5 32t-1.5 40.5v170h-55v15h142v-214q0 -19 0.5 -27t2.5 -17.5t7 -12.5t13 -3q23 0 47.5 21t36.5 45v193h-56v15h143z" />
    <glyph glyph-name="v" unicode="v" horiz-adv-x="352" 
d="M135 270l80 -163q40 85 41 163h-34v15h136v-15h-46q-27 -47 -36 -67q-52 -113 -54 -117l-44 -102l-140 286h-44v15h184v-15h-43z" />
    <glyph glyph-name="w" unicode="w" horiz-adv-x="519" 
d="M130 270l75 -156l78 189l97 -200q40 81 44 167h-50v15h149v-15h-48q-29 -58 -36 -75q-30 -68 -52 -115l-46 -96l-93 194l-77 -194l-141 286h-35v15h189v-15h-54z" />
    <glyph glyph-name="x" unicode="x" horiz-adv-x="352" 
d="M133 134l-89 136h-51v15h190v-15h-33l47 -77q27 33 35 77h-31v15h137v-15h-56q-8 -10 -20.5 -24.5t-29.5 -34.5t-26 -31l104 -164h49v-16h-190v16h38l-65 103q-35 -44 -41 -103h37v-16h-145v16h50q14 20 43 59z" />
    <glyph glyph-name="y" unicode="y" horiz-adv-x="407" 
d="M264 270h-56v15h143v-224q1 -72 4 -83q1 -9 6 -21q-56 -109 -165 -109q-66 0 -110 39l26 37l7 -4q7 -20 35.5 -38t53.5 -18q33 0 46 27q9 18 9 78v79q-44 -52 -101 -52q-61 0 -81 36q-10 16 -12 32t-2 55v151h-55v15h143v-202q0 -43 4 -55.5t23 -12.5q22 0 45 19.5
t37 48.5v187z" />
    <glyph glyph-name="z" unicode="z" horiz-adv-x="352" 
d="M334 281l-194 -262q74 -2 146 27l2 31h16l-8 -106h-17l2 26q-46 6 -124 6q-70 0 -139 -3l191 261q-74 0 -138 -28l-2 -31h-16l6 101l16 1l-1 -20q43 -6 155 -6q57 0 105 3z" />
    <glyph glyph-name="braceleft" unicode="{" horiz-adv-x="333" 
d="M294 -132v-24q-25 9 -39.5 15.5t-41.5 23t-42 34.5t-27.5 49t-12.5 69q0 42 15 93q18 61 18 84q0 73 -50 115q50 42 50 114q0 24 -18 85q-15 47 -15 93q0 39 13 71t30 50.5t43.5 34t41.5 21.5t35 12v-22q-134 -45 -134 -173q0 -40 13 -83q19 -66 19 -94q0 -62 -42 -109
q42 -47 42 -110q0 -27 -19 -93q-13 -41 -13 -82q0 -130 134 -174z" />
    <glyph glyph-name="bar" unicode="|" horiz-adv-x="592" 
d="M282 750h28v-1000h-28v1000z" />
    <glyph glyph-name="braceright" unicode="}" horiz-adv-x="333" 
d="M40 785v23q31 -11 50.5 -20.5t49.5 -31.5t46 -57t16 -82q0 -45 -14 -92q-18 -58 -18 -84q0 -74 50 -115q-50 -39 -50 -115q0 -27 18 -84q14 -50 14 -93q0 -39 -13.5 -71.5t-29.5 -50.5t-43.5 -34.5t-40.5 -21.5t-35 -12v23q133 45 133 172q0 44 -12 84q-15 50 -17.5 61.5
t-2.5 32.5q0 59 42 109q-42 50 -42 110q0 26 20 93q12 44 12 82q0 130 -133 174z" />
    <glyph glyph-name="asciitilde" unicode="~" horiz-adv-x="790" 
d="M135 713l-22 13q13 22 23.5 36.5t29 34.5t43 30.5t53.5 10.5q47 0 140 -50q86 -47 126 -47t68.5 24.5t57.5 74.5l23 -13q-63 -112 -149 -112q-43 0 -102 31q-87 45 -113 56t-53 11q-67 0 -125 -100z" />
    <glyph glyph-name="uni00A0" unicode="&#xa0;" horiz-adv-x="200" 
 />
    <glyph glyph-name="exclamdown" unicode="&#xa1;" horiz-adv-x="315" 
d="M98 0l34 536h38l41 -520h49v-16h-162zM158 659q-26 0 -43.5 18t-17.5 43t18 43.5t43 18.5q26 0 44 -18t18 -44q0 -25 -18 -43t-44 -18z" />
    <glyph glyph-name="cent" unicode="&#xa2;" 
d="M250 552v-71q37 -2 76 -16v28h16v-121h-16v34q-48 53 -89 53q-27 0 -35 -28.5t-8 -117.5q0 -29 0.5 -42t3.5 -30.5t9.5 -24t18.5 -12t30 -5.5q59 0 107 52l12 -12q-56 -59 -125 -60v-82h-16v82q-48 9 -79.5 31.5t-42.5 51t-14 43t-3 28.5q0 40 18.5 73.5t46.5 49.5
q29 17 74 25v71h16z" />
    <glyph glyph-name="sterling" unicode="&#xa3;" 
d="M488 122l-50 -156l-16 5l7 21q-89 55 -189 102q-6 -18 -12 -29.5t-19 -29.5t-35.5 -27.5t-51.5 -9.5q-42 0 -65.5 23.5t-23.5 53.5q0 35 28.5 55t68.5 20q35 0 95 -22q-5 31 -18.5 55.5t-48.5 60.5h-77v15h62q-24 25 -37 41t-28 49.5t-15 68.5q0 77 58 129.5t134 52.5
q72 0 121 -45.5t49 -114.5q0 -48 -27.5 -83t-73.5 -35q-16 0 -29 5l3 13h6q6 -1 10 -1q33 0 54.5 26.5t21.5 68.5q0 47 -33.5 98t-93.5 51q-91 0 -91 -149q0 -111 28 -175h143v-15h-136q16 -25 24.5 -47.5t10.5 -36t5 -39.5q149 -54 204 -61l22 68zM225 101q-48 28 -95 28
q-26 0 -43.5 -7t-24.5 -17.5t-9.5 -18.5t-2.5 -15q0 -24 20 -40t53 -16q11 0 23 2.5t28.5 10t30.5 26.5t20 47z" />
    <glyph glyph-name="currency" unicode="&#xa4;" 
d="M322 378l41 41l20 -19l-42 -42q33 -43 33 -90t-33 -90l42 -42l-19 -19l-42 42q-46 -33 -90 -33q-45 0 -91 33l-41 -42l-20 19l42 42q-32 42 -32 90t32 90l-42 42l20 19l41 -41q44 32 91 32q46 0 90 -32zM232 382q-47 0 -80.5 -33.5t-33.5 -80.5q0 -48 33.5 -81t80.5 -33
t80.5 33.5t33.5 80.5t-33.5 80.5t-80.5 33.5z" />
    <glyph glyph-name="yen" unicode="&#xa5;" 
d="M289 292h119v-15h-119v-36h119v-16h-119v-209h89v-16h-272v16h80v209h-122v16h122v36h-122v15h118l-177 482h-70v16h264v-16h-81l166 -452q35 100 65.5 240t36.5 212h-67v16h216v-16h-64q-32 -72 -57 -137.5t-125 -344.5z" />
    <glyph glyph-name="brokenbar" unicode="&#xa6;" horiz-adv-x="592" 
d="M282 675h28v-350h-28v350zM282 175h28v-350h-28v350z" />
    <glyph glyph-name="section" unicode="&#xa7;" 
d="M374 801l3 -140h-16l-2 50q-48 71 -119 71q-10 0 -19.5 -2t-22.5 -7t-21 -17t-8 -30q0 -36 27.5 -58.5t128.5 -79.5q121 -68 121 -173q0 -67 -41 -118q-31 -38 -87 -52q108 -73 108 -155q0 -72 -61.5 -125t-144.5 -53q-69 0 -152 47v-53h-16v177h15l1 -54q81 -97 163 -97
q55 0 79.5 28.5t24.5 64.5q0 73 -109 145q-55 37 -75 50.5t-48 34.5t-40.5 35.5t-23.5 33.5q-31 49 -31 105q0 35 10.5 62t31 46t33.5 28t36 21q-39 39 -39 93q0 61 49 91.5t111 30.5q52 0 118 -26v26h16zM137 568q-39 -42 -39 -89q0 -63 53 -114t151 -108q80 21 80 89
q0 25 -8 43q-14 30 -47.5 60t-68.5 48q-88 48 -121 71z" />
    <glyph glyph-name="dieresis" unicode="&#xa8;" horiz-adv-x="500" 
d="M181 404h37v-38h-37v38zM283 404h36v-38h-36v38z" />
    <glyph glyph-name="copyright" unicode="&#xa9;" horiz-adv-x="923" 
d="M644 697l3 -157h-16v15q0 34 -51 75.5t-118 41.5q-29 0 -50 -9t-31.5 -20t-17.5 -31.5t-8.5 -33.5t-3.5 -36q-5 -82 -5 -162q0 -115 3.5 -149t17.5 -61q15 -30 50 -44t66 -14q84 0 161 65l-10 -61q-76 -21 -131 -21q-110 0 -186 79q-82 86 -82 214q0 129 75 218t180 89
q52 0 139 -36l-1 38h16zM461 798q167 0 286 -118t119 -287q0 -165 -117.5 -284.5t-287.5 -119.5q-168 0 -286 119t-118 285q0 169 119 287t285 118zM461 774q-155 0 -267 -110.5t-112 -270.5q0 -157 110.5 -268.5t268.5 -111.5q159 0 269.5 112t110.5 268q0 159 -112 270
t-268 111z" />
    <glyph glyph-name="ordfeminine" unicode="&#xaa;" horiz-adv-x="370" 
d="M209 512v74q-14 4 -25 4t-25.5 -1.5t-46 -16t-47.5 -40.5h-12l4 54q56 21 114 21q44 0 72 -11t38.5 -32.5t13 -36t2.5 -38.5v-110q0 -28 3 -39t13 -11q21 0 50 36l12 -10q-12 -15 -20 -23.5t-27 -17t-44 -8.5t-40.5 8.5t-21.5 18t-10 24.5q-48 -51 -103 -51
q-39 0 -65 22.5t-26 65.5q0 56 44 91.5t98 35.5q24 0 49 -9zM209 382v113q-27 9 -53 9q-30 0 -36.5 -15.5t-6.5 -77.5q0 -61 3 -73t16 -12q16 0 39.5 16.5t37.5 39.5z" />
    <glyph glyph-name="guillemotleft" unicode="&#xab;" 
d="M96 324l154 -190l-68 -55l-164 202l232 187l10 -12zM281 324l154 -190l-68 -55l-164 202l232 187l10 -12z" />
    <glyph glyph-name="logicalnot" unicode="&#xac;" horiz-adv-x="592" 
d="M525 0v290h-485v26h513v-316h-28z" />
    <glyph glyph-name="uni00AD" unicode="&#xad;" horiz-adv-x="333" 
d="M20 161h293v-27h-293v27z" />
    <glyph glyph-name="registered" unicode="&#xae;" horiz-adv-x="923" 
d="M276 684h171q90 0 155.5 -58t65.5 -141q0 -59 -40 -111.5t-122 -70.5q68 -13 89 -46.5t22 -99.5v-19t1.5 -12t4 -8t7.5 -2q22 0 50 35l12 -9q-10 -15 -16 -22t-23 -15t-39 -8q-81 0 -81 74q-1 59 -5 80.5t-19 32.5q-24 16 -62 16h-33v-181h53v-16h-191v16h53v181h-56v15
h56v354h-53v15zM414 669v-354h33q28 0 40 1t30 5.5t25.5 15t16 29.5t11 48.5t2.5 72.5q0 58 -8 95t-25.5 55.5t-38 25t-53.5 6.5h-33zM461 798q167 0 286 -118t119 -287q0 -165 -117.5 -284.5t-287.5 -119.5q-168 0 -286 119t-118 285q0 169 119 287t285 118zM461 774
q-155 0 -267 -110.5t-112 -270.5q0 -157 110.5 -268.5t268.5 -111.5q159 0 269.5 112t110.5 268q0 159 -112 270t-268 111z" />
    <glyph glyph-name="macron" unicode="&#xaf;" horiz-adv-x="500" 
d="M349 381h-198v21h198v-21z" />
    <glyph glyph-name="degree" unicode="&#xb0;" 
d="M231 789q59 0 100.5 -41t41.5 -101q0 -58 -41 -100t-101 -42q-59 0 -100 42t-41 100q0 60 41.5 101t99.5 41zM232 761q-47 0 -80.5 -33t-33.5 -81q0 -47 33.5 -80.5t80.5 -33.5t80.5 33.5t33.5 80.5t-33.5 80.5t-80.5 33.5z" />
    <glyph glyph-name="plusminus" unicode="&#xb1;" 
d="M432 254h-187v-186h-27v186h-187v28h187v186h27v-186h187v-28zM432 0h-401v27h401v-27z" />
    <glyph glyph-name="twosuperior" unicode="&#xb2;" horiz-adv-x="301" 
d="M137 476l11 -6q-5 -24 -19.5 -33.5t-27.5 -9.5q-24 0 -44 18.5t-20 50.5q0 38 29 69.5t77 31.5t84 -31t36 -77q0 -36 -14 -67t-46.5 -62.5t-59 -52.5t-77.5 -56h21q88 0 153 22l1 24h14l-4 -81h-14l1 18q-21 3 -86 3h-116v10q42 31 58.5 43t39.5 32.5t29 31.5t14.5 32
t9.5 41.5t1 53.5q0 56 -12 78.5t-38 22.5q-29 0 -47 -17.5t-22.5 -34.5t-4.5 -33q0 -22 10 -38.5t28 -16.5q28 0 35 34z" />
    <glyph glyph-name="threesuperior" unicode="&#xb3;" horiz-adv-x="301" 
d="M47 516v88h14v-21q33 14 70 14q55 0 86.5 -28.5t31.5 -59.5q0 -22 -17 -42.5t-49 -30.5q37 -13 56.5 -41t19.5 -58q0 -43 -34.5 -74t-86.5 -31q-30 0 -87 20v-24h-14v90h14v-24q36 -47 88 -47q23 0 33.5 20t10.5 82q0 50 -10 65t-41 15q-17 0 -35 -4v-25h-14v76h14v-25
q13 -9 39 -9q24 0 32 13t8 50q0 42 -8.5 59.5t-30.5 17.5q-21 0 -42 -12.5t-34 -29.5v-24h-14z" />
    <glyph glyph-name="acute" unicode="&#xb4;" horiz-adv-x="500" 
d="M345 454l24 -22l-106 -101l-13 12z" />
    <glyph glyph-name="mu" unicode="&#xb5;" horiz-adv-x="402" 
d="M334 285v-269h56v-16h-140v47q-30 -31 -50.5 -42.5t-56.5 -12.5v-142h-84v420h-55v15h139v-214q0 -19 0.5 -27t2.5 -17.5t7 -12.5t13 -3q23 0 47.5 21t35.5 45v193h-55v15h140z" />
    <glyph glyph-name="paragraph" unicode="&#xb6;" horiz-adv-x="604" 
d="M564 790v-22h-71v-547q0 -50 -2 -75t-15.5 -60t-40.5 -63q-65 -67 -165 -67q-34 0 -76 10v49q33 -32 80 -32q65 0 91 52q16 28 16 101v131h-18q-64 0 -112.5 10.5t-90.5 42.5q-53 39 -83.5 96.5t-30.5 121.5q0 76 35 130t82 84q62 38 221 38h180zM467 182v586h-59v-586
q0 -85 -7 -119t-37 -65q103 53 103 184z" />
    <glyph glyph-name="periodcentered" unicode="&#xb7;" horiz-adv-x="185" 
d="M93 293q25 0 43 -18t18 -44q0 -25 -18 -43.5t-43 -18.5q-26 0 -44 18.5t-18 43.5t18 43.5t44 18.5z" />
    <glyph glyph-name="cedilla" unicode="&#xb8;" horiz-adv-x="500" 
d="M275 0l-9 -41q45 -13 45 -50q0 -25 -23 -43.5t-67 -11.5l4 20q20 -5 40 3.5t20 29.5q0 13 -10 21t-15.5 9.5t-19.5 4.5l14 58h21z" />
    <glyph glyph-name="onesuperior" unicode="&#xb9;" horiz-adv-x="301" 
d="M201 591v-340h37v-14h-152v14h41v288q-59 -40 -64 -44l-6 13q92 61 161 115l9 -12z" />
    <glyph glyph-name="ordmasculine" unicode="&#xba;" horiz-adv-x="370" 
d="M182 607q67 0 114 -41t47 -110q0 -24 -7.5 -48t-24 -48t-48.5 -39t-76 -15q-84 0 -122 45.5t-38 103.5q0 72 47 112t108 40zM181 590q-33 0 -45.5 -25t-12.5 -104q0 -91 10.5 -115t47.5 -24q42 0 53.5 25.5t11.5 98.5q0 92 -10.5 118t-54.5 26z" />
    <glyph glyph-name="guillemotright" unicode="&#xbb;" 
d="M182 222l-154 189l68 56l164 -202l-232 -188l-10 12zM367 222l-154 189l68 56l164 -202l-232 -188l-10 12z" />
    <glyph glyph-name="onequarter" unicode="&#xbc;" horiz-adv-x="657" 
d="M527 354v-245q22 0 35 8v20h14v-75h-14v26q-11 6 -35 6v-80h40v-14h-157v14h45v79h-27q-74 0 -104 -6l-5 9q37 45 85 111l134 184l11 -8zM455 108v145q-1 -2 -9 -14.5t-15.5 -24t-9.5 -15.5q-31 -51 -50 -91h84zM201 591v-340h37v-14h-152v14h41v288l-65 -44l-5 13
q92 61 161 115l9 -12zM529 615l-402 -643l-19 13l403 643z" />
    <glyph glyph-name="onehalf" unicode="&#xbd;" horiz-adv-x="657" 
d="M196 591v-340h36v-14h-151v14h41v288l-15 -10q-15 -10 -31.5 -21.5t-18.5 -12.5l-6 13q92 61 162 115l8 -12q-20 -15 -25 -20zM526 615l-402 -643l-18 13l402 643zM465 239l11 -6q-9 -43 -47 -43q-24 0 -44.5 18.5t-20.5 51.5q0 38 29.5 69t77.5 31q47 0 83.5 -31
t36.5 -77q0 -36 -14 -67t-47 -63t-58.5 -51.5t-77.5 -56.5h21q90 0 153 22l1 24h14l-4 -81h-14l1 19q-20 2 -87 2h-115v10q92 68 111 88q41 43 41 146q0 57 -12 79t-38 22q-29 0 -47 -17.5t-22.5 -34.5t-4.5 -33q0 -21 9 -38t29 -17q9 0 16 3t11 11l5 10t3 10z" />
    <glyph glyph-name="threequarters" unicode="&#xbe;" horiz-adv-x="657" 
d="M562 354v-245q23 0 34 8v20h14v-75h-14v26q-11 6 -34 6v-80h39v-14h-157v14h45v79h-27q-77 0 -104 -6l-4 9q39 49 84 111l134 184l11 -8zM489 108v145q-54 -83 -84 -145h84zM70 516v88h14v-21q33 14 70 14q55 0 86.5 -28.5t31.5 -59.5q0 -23 -17 -43t-50 -30
q38 -13 57 -41t19 -58q0 -43 -34.5 -74t-85.5 -31q-30 0 -87 20v-24h-15v90h15v-24q36 -47 87 -47q24 0 34.5 20t10.5 82q0 50 -10 65t-41 15q-19 0 -35 -4v-25h-14v76h14v-25q14 -9 39 -9q24 0 31.5 13t7.5 50q0 42 -8 59.5t-30 17.5q-21 0 -42.5 -12.5t-33.5 -29.5v-24
h-14zM567 615l-402 -643l-19 13l403 643z" />
    <glyph glyph-name="questiondown" unicode="&#xbf;" horiz-adv-x="481" 
d="M305 295l-8 13q19 12 39 12q45 0 80.5 -45t35.5 -111q0 -80 -57.5 -127t-128.5 -47q-83 0 -152 62t-69 151q0 101 95 164q17 11 39 25.5t29.5 19.5t18 12.5t14 11.5t8 9t8.5 12q14 23 14 46q0 27 -28 44l3 12q47 -10 47 -60q0 -47 -53 -101q-25 -26 -39 -45t-30.5 -67.5
t-16.5 -109.5q0 -171 119 -171q65 0 104 50t39 118q0 57 -25 94t-56 37q-13 0 -30 -9zM276 659q-26 0 -44 18t-18 43q0 26 18.5 44t43.5 18t43 -18t18 -44t-17.5 -43.5t-43.5 -17.5z" />
    <glyph glyph-name="Agrave" unicode="&#xc0;" horiz-adv-x="630" 
d="M341 790l158 -509h101v-16h-96l78 -249h56v-16h-232v16h69l-79 249h-232q-48 -121 -50 -249h70v-16h-193v16h57q32 67 54 128l41 121q-36 -1 -88 -24l21 54q28 -13 73 -14l177 509h15zM391 281l-106 343l-116 -343h222zM244 934l132 -74l-8 -16l-140 61z" />
    <glyph glyph-name="Aacute" unicode="&#xc1;" horiz-adv-x="630" 
d="M341 790l158 -509h101v-16h-96l78 -249h56v-16h-232v16h69l-79 249h-232q-48 -121 -50 -249h70v-16h-193v16h57q32 67 54 128l41 121q-36 -1 -88 -24l21 54q28 -13 73 -14l177 509h15zM391 281l-106 343l-116 -343h222zM431 934l16 -29l-140 -61l-8 16z" />
    <glyph glyph-name="Acircumflex" unicode="&#xc2;" horiz-adv-x="630" 
d="M341 790l158 -509h101v-16h-96l78 -249h56v-16h-232v16h69l-79 249h-232q-48 -121 -50 -249h70v-16h-193v16h57q32 67 54 128l41 121q-36 -1 -88 -24l21 54q28 -13 73 -14l177 509h15zM391 281l-106 343l-116 -343h222zM348 930l88 -85h-21l-83 57l-83 -57h-21l88 85h32z
" />
    <glyph glyph-name="Atilde" unicode="&#xc3;" horiz-adv-x="630" 
d="M341 790l158 -509h101v-16h-96l78 -249h56v-16h-232v16h69l-79 249h-232q-48 -121 -50 -249h70v-16h-193v16h57q32 67 54 128l41 121q-36 -1 -88 -24l21 54q28 -13 73 -14l177 509h15zM391 281l-106 343l-116 -343h222zM433 902l16 -15q-30 -34 -63 -34q-21 0 -47 16
q-25 16 -44 16q-31 0 -59 -36l-17 14q12 14 18 20.5t23 15t36 8.5q23 0 52 -16q27 -16 40 -16q22 0 45 27z" />
    <glyph glyph-name="Adieresis" unicode="&#xc4;" horiz-adv-x="630" 
d="M341 790l158 -509h101v-16h-96l78 -249h56v-16h-232v16h69l-79 249h-232q-48 -121 -50 -249h70v-16h-193v16h57q32 67 54 128l41 121q-36 -1 -88 -24l21 54q28 -13 73 -14l177 509h15zM391 281l-106 343l-116 -343h222zM262 901h38v-40h-38v40zM364 901h38v-40h-38v40z
" />
    <glyph glyph-name="Aring" unicode="&#xc5;" horiz-adv-x="630" 
d="M341 790l158 -509h101v-16h-96l78 -249h56v-16h-232v16h69l-79 249h-232q-48 -121 -50 -249h70v-16h-193v16h57q32 67 54 128l41 121q-36 -1 -88 -24l21 54q28 -13 73 -14l177 509h15zM391 281l-106 343l-116 -343h222zM332 954q29 0 49.5 -21t20.5 -49q0 -29 -20 -50
t-50 -21t-50 20.5t-20 50.5q0 28 20.5 49t49.5 21zM332 933q-21 0 -35 -14.5t-14 -34.5q0 -21 14.5 -35t34.5 -14t34.5 14t14.5 35q0 19 -14 34t-35 15z" />
    <glyph glyph-name="AE" unicode="&#xc6;" horiz-adv-x="852" 
d="M574 774v-489h19q94 0 141 18v42h16v-141h-16v37q-72 29 -141 29h-19v-254h27q70 0 129.5 15t92.5 38v35h16v-128h-16v24h-422v16h71v254h-259q-73 -125 -110 -254h69v-16h-193v16h53q71 93 132 209l24 45q-55 -9 -102 -33l27 67q35 -16 84 -19l258 489h-61v16h428l-1 22
h16l2 -124h-16v32q-41 26 -77 34q-87 20 -145 20h-27zM472 285v489l-252 -489h252z" />
    <glyph glyph-name="Ccedilla" unicode="&#xc7;" horiz-adv-x="556" 
d="M532 804l4 -166h-16v16q0 30 -46 73q-54 49 -137 49q-51 0 -101 -22.5t-62 -56.5q-23 -62 -23 -348q0 -217 10 -248q13 -40 75 -68t122 -28q88 0 176 69l-10 -63q-91 -26 -171 -22l-7 -31q46 -14 46 -52q0 -21 -17.5 -40t-56.5 -19q-9 0 -19 2l4 21q21 -5 41.5 3.5
t20.5 31.5q0 27 -46 35l12 51q-94 10 -163.5 67.5t-102.5 141t-33 181.5q0 79 22.5 154t63.5 134.5t105 95.5t141 36q42 0 72.5 -8t81.5 -29l-1 40h15z" />
    <glyph glyph-name="Egrave" unicode="&#xc8;" horiz-adv-x="481" 
d="M204 774v-493h19q84 0 142 20v39h16v-141h-16v38q-67 28 -142 28h-19v-249h28q62 0 124 14.5t97 38.5v35h16v-128h-16v24h-422v16h71v249h-76v16h76v493h-71v16h420v22h15l3 -124h-16l-1 32q-32 25 -93.5 39.5t-118.5 14.5h-36zM199 934l131 -74l-8 -16l-139 61z" />
    <glyph glyph-name="Eacute" unicode="&#xc9;" horiz-adv-x="481" 
d="M204 774v-493h19q84 0 142 20v39h16v-141h-16v38q-67 28 -142 28h-19v-249h28q62 0 124 14.5t97 38.5v35h16v-128h-16v24h-422v16h71v249h-76v16h76v493h-71v16h420v22h15l3 -124h-16l-1 32q-32 25 -93.5 39.5t-118.5 14.5h-36zM374 934l16 -29l-140 -61l-8 16z" />
    <glyph glyph-name="Ecircumflex" unicode="&#xca;" horiz-adv-x="481" 
d="M204 774v-493h19q84 0 142 20v39h16v-141h-16v38q-67 28 -142 28h-19v-249h28q62 0 124 14.5t97 38.5v35h16v-128h-16v24h-422v16h71v249h-76v16h76v493h-71v16h420v22h15l3 -124h-16l-1 32q-32 25 -93.5 39.5t-118.5 14.5h-36zM308 930l88 -85h-21l-83 57l-83 -57h-21
l88 85h32z" />
    <glyph glyph-name="Edieresis" unicode="&#xcb;" horiz-adv-x="481" 
d="M204 774v-493h19q84 0 142 20v39h16v-141h-16v38q-67 28 -142 28h-19v-249h28q62 0 124 14.5t97 38.5v35h16v-128h-16v24h-422v16h71v249h-76v16h76v493h-71v16h420v22h15l3 -124h-16l-1 32q-32 25 -93.5 39.5t-118.5 14.5h-36zM222 901h39v-40h-39v40zM324 901h38v-40
h-38v40z" />
    <glyph glyph-name="Igrave" unicode="&#xcc;" horiz-adv-x="296" 
d="M97 774h-71v16h244v-16h-71v-758h71v-16h-244v16h71v758zM55 934l131 -74l-8 -16l-139 61z" />
    <glyph glyph-name="Iacute" unicode="&#xcd;" horiz-adv-x="296" 
d="M97 774h-71v16h244v-16h-71v-758h71v-16h-244v16h71v758zM241 934l16 -29l-139 -61l-8 16z" />
    <glyph glyph-name="Icircumflex" unicode="&#xce;" horiz-adv-x="296" 
d="M97 774h-71v16h244v-16h-71v-758h71v-16h-244v16h71v758zM164 930l88 -85h-21l-83 57l-83 -57h-21l88 85h32z" />
    <glyph glyph-name="Idieresis" unicode="&#xcf;" horiz-adv-x="296" 
d="M97 774h-71v16h244v-16h-71v-758h71v-16h-244v16h71v758zM78 901h38v-40h-38v40zM180 901h38v-40h-38v40z" />
    <glyph glyph-name="Eth" unicode="&#xd0;" horiz-adv-x="667" 
d="M97 16v249h-71v16h71v493h-71v16h251q42 0 72 -4t77 -26.5t89 -64.5q120 -122 120 -295q0 -117 -50.5 -206t-116.5 -137q-79 -57 -206 -57h-236v16h71zM200 265v-249h62q66 0 111 15q28 9 41.5 16t36 30t33 57.5t19.5 99t9 153.5q0 211 -46 307q-38 80 -194 80h-72v-493
h139v-16h-139z" />
    <glyph glyph-name="Ntilde" unicode="&#xd1;" horiz-adv-x="611" 
d="M167 790l328 -591v78q0 219 -5 331t-22 166h-65v16h191v-16h-43q-10 -31 -24 -158q-2 -21 -9 -163.5t-7 -180.5v-307l-364 652v-34q0 -325 3 -415t20 -152h71v-16h-209v16h64q17 83 23 181q3 48 7.5 207t4.5 188v54l-70 128h-61v16h167zM427 902l16 -15q-30 -34 -63 -34
q-21 0 -47 16q-25 16 -44 16q-31 0 -59 -36l-17 14q11 13 18 20t23.5 15.5t35.5 8.5q22 0 53 -16q26 -16 39 -16q22 0 45 27z" />
    <glyph glyph-name="Ograve" unicode="&#xd2;" horiz-adv-x="667" 
d="M339 801q148 0 235 -154q61 -110 61 -253q0 -174 -84.5 -290t-218.5 -116q-86 0 -156 58t-107 149t-37 191q0 86 27 170t74 146q32 41 79 65.5t75 29t52 4.5zM339 784q-19 0 -38 -3.5t-43.5 -13.5t-45.5 -31.5t-33 -53.5q-14 -36 -21 -143.5t-7 -177.5q0 -199 28 -264
q7 -17 15.5 -30t25.5 -28.5t47 -24.5t70 -9q109 0 144 88q32 78 32 335q0 161 -17 233q-14 62 -56 92.5t-101 30.5zM251 934l132 -74l-8 -16l-140 61z" />
    <glyph glyph-name="Oacute" unicode="&#xd3;" horiz-adv-x="667" 
d="M339 801q148 0 235 -154q61 -110 61 -253q0 -174 -84.5 -290t-218.5 -116q-86 0 -156 58t-107 149t-37 191q0 86 27 170t74 146q32 41 79 65.5t75 29t52 4.5zM339 784q-19 0 -38 -3.5t-43.5 -13.5t-45.5 -31.5t-33 -53.5q-14 -36 -21 -143.5t-7 -177.5q0 -199 28 -264
q7 -17 15.5 -30t25.5 -28.5t47 -24.5t70 -9q109 0 144 88q32 78 32 335q0 161 -17 233q-14 62 -56 92.5t-101 30.5zM427 934l16 -29l-140 -61l-8 16z" />
    <glyph glyph-name="Ocircumflex" unicode="&#xd4;" horiz-adv-x="667" 
d="M339 801q148 0 235 -154q61 -110 61 -253q0 -174 -84.5 -290t-218.5 -116q-86 0 -156 58t-107 149t-37 191q0 86 27 170t74 146q32 41 79 65.5t75 29t52 4.5zM339 784q-19 0 -38 -3.5t-43.5 -13.5t-45.5 -31.5t-33 -53.5q-14 -36 -21 -143.5t-7 -177.5q0 -199 28 -264
q7 -17 15.5 -30t25.5 -28.5t47 -24.5t70 -9q109 0 144 88q32 78 32 335q0 161 -17 233q-14 62 -56 92.5t-101 30.5zM349 930l89 -85h-22l-82 57l-83 -57h-22l89 85h31z" />
    <glyph glyph-name="Otilde" unicode="&#xd5;" horiz-adv-x="667" 
d="M339 801q148 0 235 -154q61 -110 61 -253q0 -174 -84.5 -290t-218.5 -116q-86 0 -156 58t-107 149t-37 191q0 86 27 170t74 146q32 41 79 65.5t75 29t52 4.5zM339 784q-19 0 -38 -3.5t-43.5 -13.5t-45.5 -31.5t-33 -53.5q-14 -36 -21 -143.5t-7 -177.5q0 -199 28 -264
q7 -17 15.5 -30t25.5 -28.5t47 -24.5t70 -9q109 0 144 88q32 78 32 335q0 161 -17 233q-14 62 -56 92.5t-101 30.5zM438 905l16 -15q-30 -34 -63 -34q-21 0 -47 16q-25 16 -44 16q-31 0 -59 -36l-17 14q34 44 77 44q24 0 52 -17q28 -15 40 -15q22 0 45 27z" />
    <glyph glyph-name="Odieresis" unicode="&#xd6;" horiz-adv-x="667" 
d="M339 801q148 0 235 -154q61 -110 61 -253q0 -174 -84.5 -290t-218.5 -116q-86 0 -156 58t-107 149t-37 191q0 86 27 170t74 146q32 41 79 65.5t75 29t52 4.5zM339 784q-19 0 -38 -3.5t-43.5 -13.5t-45.5 -31.5t-33 -53.5q-14 -36 -21 -143.5t-7 -177.5q0 -199 28 -264
q7 -17 15.5 -30t25.5 -28.5t47 -24.5t70 -9q109 0 144 88q32 78 32 335q0 161 -17 233q-14 62 -56 92.5t-101 30.5zM263 901h39v-40h-39v40zM365 901h38v-40h-38v40z" />
    <glyph glyph-name="multiply" unicode="&#xd7;" 
d="M383 400l-132 -132l132 -132l-19 -19l-132 132l-132 -132l-20 19l132 132l-132 132l20 19l132 -132l131 132z" />
    <glyph glyph-name="Oslash" unicode="&#xd8;" horiz-adv-x="667" 
d="M469 765l34 76h19l-38 -87q62 -48 106.5 -139t44.5 -220q0 -176 -84.5 -291.5t-218.5 -115.5q-84 0 -158 60l-41 -94h-19l46 106q-128 128 -128 326q0 107 42 212.5t114 153.5q71 49 157 49q67 0 124 -36zM177 100l281 638q-49 46 -119 46q-53 0 -97.5 -26.5t-62.5 -73.5
q-14 -37 -21 -146t-7 -176q0 -179 26 -262zM470 723l-283 -644q44 -74 146 -74q112 0 148 88q32 78 32 334q0 129 -9 192t-34 104z" />
    <glyph glyph-name="Ugrave" unicode="&#xd9;" horiz-adv-x="630" 
d="M197 774v-526q0 -155 17 -190q26 -53 106 -53q111 0 165 87q18 29 25 81.5t7 197.5q0 266 -30 403h-71v16h229v-16h-76q-11 -55 -18 -136.5t-9.5 -147.5t-7.5 -229q-2 -61 -5 -91t-19.5 -69.5t-48.5 -65.5q-60 -47 -141 -47q-95 0 -159 52q-31 24 -47 66.5t-18 70
t-2 71.5v526h-70v16h244v-16h-71zM250 934l132 -74l-8 -16l-140 61z" />
    <glyph glyph-name="Uacute" unicode="&#xda;" horiz-adv-x="630" 
d="M197 774v-526q0 -155 17 -190q26 -53 106 -53q111 0 165 87q18 29 25 81.5t7 197.5q0 266 -30 403h-71v16h229v-16h-76q-11 -55 -18 -136.5t-9.5 -147.5t-7.5 -229q-2 -61 -5 -91t-19.5 -69.5t-48.5 -65.5q-60 -47 -141 -47q-95 0 -159 52q-31 24 -47 66.5t-18 70
t-2 71.5v526h-70v16h244v-16h-71zM437 934l16 -29l-140 -61l-8 16z" />
    <glyph glyph-name="Ucircumflex" unicode="&#xdb;" horiz-adv-x="630" 
d="M197 774v-526q0 -155 17 -190q26 -53 106 -53q111 0 165 87q18 29 25 81.5t7 197.5q0 266 -30 403h-71v16h229v-16h-76q-11 -55 -18 -136.5t-9.5 -147.5t-7.5 -229q-2 -61 -5 -91t-19.5 -69.5t-48.5 -65.5q-60 -47 -141 -47q-95 0 -159 52q-31 24 -47 66.5t-18 70
t-2 71.5v526h-70v16h244v-16h-71zM376 930l89 -85h-22l-83 57l-82 -57h-22l89 85h31z" />
    <glyph glyph-name="Udieresis" unicode="&#xdc;" horiz-adv-x="630" 
d="M197 774v-526q0 -155 17 -190q26 -53 106 -53q111 0 165 87q18 29 25 81.5t7 197.5q0 266 -30 403h-71v16h229v-16h-76q-11 -55 -18 -136.5t-9.5 -147.5t-7.5 -229q-2 -61 -5 -91t-19.5 -69.5t-48.5 -65.5q-60 -47 -141 -47q-95 0 -159 52q-31 24 -47 66.5t-18 70
t-2 71.5v526h-70v16h244v-16h-71zM268 901h38v-40h-38v40zM369 901h39v-40h-39v40z" />
    <glyph glyph-name="Yacute" unicode="&#xdd;" horiz-adv-x="611" 
d="M169 774l189 -452q41 101 76 240.5t42 211.5h-68v16h217v-16h-64q-52 -111 -90 -206l-108 -276v-276h89v-16h-272v16h80v265l-204 493h-70v16h263v-16h-80zM433 934l16 -29l-139 -61l-9 16z" />
    <glyph glyph-name="Thorn" unicode="&#xde;" horiz-adv-x="537" 
d="M306 0h-275v16h71v135h-76v16h76v607h-71v16h244v-16h-71v-103h40q69 0 123 -23t86.5 -62t49 -87t16.5 -101q0 -112 -71 -179.5t-188 -67.5h-56v-135h102v-16zM204 656v-489h52q93 0 117 41q29 46 29 211q0 103 -14 152.5t-46 67t-99 17.5h-39z" />
    <glyph glyph-name="germandbls" unicode="&#xdf;" horiz-adv-x="389" 
d="M75 270h-63v15h63v355q0 41 2 59.5t13 41t34 38.5q32 22 87 22q85 0 140 -62t55 -156q0 -90 -52 -160t-136 -74q-4 -46 16 -75t85 -86q40 -35 40 -88q0 -44 -26 -76t-66 -32q-65 0 -70 75h16q0 -12 4.5 -20t8.5 -10t7 -2q16 0 27 22.5t11 52.5q0 51 -27 105
q-43 80 -43 121q0 11 5 29q48 -6 77.5 55.5t29.5 153.5q0 86 -39 147.5t-84 61.5q-10 0 -15.5 -4t-8 -16t-3 -22t-0.5 -33v-708h-143v16h55v254z" />
    <glyph glyph-name="agrave" unicode="&#xe0;" horiz-adv-x="370" 
d="M209 198v74q-12 5 -25 5q-43 0 -84 -24q-20 -11 -35 -35h-12l4 54q56 21 114 21q44 0 72 -11t38.5 -32.5t13 -35.5t2.5 -38v-111q0 -28 3 -39t13 -11q19 0 50 36l12 -9q-12 -16 -21 -25t-28 -17t-43 -8q-26 0 -42 10t-20.5 18t-8.5 23q-48 -51 -103 -51q-39 0 -65 22.5
t-26 65.5q0 55 43.5 91t98.5 36q22 0 49 -9zM209 68v114q-29 9 -53 9q-30 0 -36.5 -15.5t-6.5 -77.5q0 -61 3 -73q2 -12 16 -12q16 0 39 16t38 39zM115 452l101 -107l-12 -13l-111 96z" />
    <glyph glyph-name="aacute" unicode="&#xe1;" horiz-adv-x="370" 
d="M209 198v74q-12 5 -25 5q-43 0 -84 -24q-20 -11 -35 -35h-12l4 54q56 21 114 21q44 0 72 -11t38.5 -32.5t13 -35.5t2.5 -38v-111q0 -28 3 -39t13 -11q19 0 50 36l12 -9q-12 -16 -21 -25t-28 -17t-43 -8q-26 0 -42 10t-20.5 18t-8.5 23q-48 -51 -103 -51q-39 0 -65 22.5
t-26 65.5q0 55 43.5 91t98.5 36q22 0 49 -9zM209 68v114q-29 9 -53 9q-30 0 -36.5 -15.5t-6.5 -77.5q0 -61 3 -73q2 -12 16 -12q16 0 39 16t38 39zM246 454l24 -22l-106 -101l-13 12z" />
    <glyph glyph-name="acircumflex" unicode="&#xe2;" horiz-adv-x="370" 
d="M209 198v74q-12 5 -25 5q-43 0 -84 -24q-20 -11 -35 -35h-12l4 54q56 21 114 21q44 0 72 -11t38.5 -32.5t13 -35.5t2.5 -38v-111q0 -28 3 -39t13 -11q19 0 50 36l12 -9q-12 -16 -21 -25t-28 -17t-43 -8q-26 0 -42 10t-20.5 18t-8.5 23q-48 -51 -103 -51q-39 0 -65 22.5
t-26 65.5q0 55 43.5 91t98.5 36q22 0 49 -9zM209 68v114q-29 9 -53 9q-30 0 -36.5 -15.5t-6.5 -77.5q0 -61 3 -73q2 -12 16 -12q16 0 39 16t38 39zM185 441l79 -98h-22l-68 69l-68 -69h-23l80 98h22z" />
    <glyph glyph-name="atilde" unicode="&#xe3;" horiz-adv-x="370" 
d="M209 198v74q-12 5 -25 5q-43 0 -84 -24q-20 -11 -35 -35h-12l4 54q56 21 114 21q44 0 72 -11t38.5 -32.5t13 -35.5t2.5 -38v-111q0 -28 3 -39t13 -11q19 0 50 36l12 -9q-12 -16 -21 -25t-28 -17t-43 -8q-26 0 -42 10t-20.5 18t-8.5 23q-48 -51 -103 -51q-39 0 -65 22.5
t-26 65.5q0 55 43.5 91t98.5 36q22 0 49 -9zM209 68v114q-29 9 -53 9q-30 0 -36.5 -15.5t-6.5 -77.5q0 -61 3 -73q2 -12 16 -12q16 0 39 16t38 39zM261 414l16 -13q-28 -33 -58 -33q-12 0 -50 23q-14 9 -28 9q-29 0 -53 -30l-17 13q31 39 71 39q20 0 45 -17q23 -15 33 -15
q20 0 41 24z" />
    <glyph glyph-name="adieresis" unicode="&#xe4;" horiz-adv-x="370" 
d="M209 198v74q-12 5 -25 5q-43 0 -84 -24q-20 -11 -35 -35h-12l4 54q56 21 114 21q44 0 72 -11t38.5 -32.5t13 -35.5t2.5 -38v-111q0 -28 3 -39t13 -11q19 0 50 36l12 -9q-12 -16 -21 -25t-28 -17t-43 -8q-26 0 -42 10t-20.5 18t-8.5 23q-48 -51 -103 -51q-39 0 -65 22.5
t-26 65.5q0 55 43.5 91t98.5 36q22 0 49 -9zM209 68v114q-29 9 -53 9q-30 0 -36.5 -15.5t-6.5 -77.5q0 -61 3 -73q2 -12 16 -12q16 0 39 16t38 39zM104 404h37v-38h-37v38zM205 404h37v-38h-37v38z" />
    <glyph glyph-name="aring" unicode="&#xe5;" horiz-adv-x="370" 
d="M209 198v74q-12 5 -25 5q-43 0 -84 -24q-20 -11 -35 -35h-12l4 54q56 21 114 21q44 0 72 -11t38.5 -32.5t13 -35.5t2.5 -38v-111q0 -28 3 -39t13 -11q19 0 50 36l12 -9q-12 -16 -21 -25t-28 -17t-43 -8q-26 0 -42 10t-20.5 18t-8.5 23q-48 -51 -103 -51q-39 0 -65 22.5
t-26 65.5q0 55 43.5 91t98.5 36q22 0 49 -9zM209 68v114q-29 9 -53 9q-30 0 -36.5 -15.5t-6.5 -77.5q0 -61 3 -73q2 -12 16 -12q16 0 39 16t38 39zM180 462q28 0 48 -20t20 -48q0 -29 -20.5 -48.5t-47.5 -19.5q-28 0 -48.5 20t-20.5 48q0 27 20 47.5t49 20.5zM180 442
q-20 0 -34 -14t-14 -34t14 -34t34 -14t33.5 14t13.5 34t-13.5 34t-33.5 14z" />
    <glyph glyph-name="ae" unicode="&#xe6;" horiz-adv-x="500" 
d="M482 161h-187q-4 -93 7 -123t53 -30q22 0 59.5 17t66.5 58h10v-35q-62 -56 -140 -56q-86 0 -131 62q-21 -20 -33 -30t-35 -21t-47 -11q-32 0 -59.5 20.5t-27.5 65.5q0 44 25.5 74.5t57.5 42.5t63 12q16 0 41 -9v74q-15 5 -26 5q-76 0 -114 -59h-12l4 54q56 21 109 21
q67 0 103 -36q49 36 89 36q17 0 35.5 -6t38.5 -19.5t34 -41t16 -65.5zM205 146v36q-18 8 -44 8q-33 0 -40.5 -16.5t-7.5 -64.5q0 -66 2 -78q3 -18 17 -18q15 0 38.5 18t40.5 40q-4 17 -6 75zM295 177h133q6 100 -68 100q-21 0 -34 -7t-19 -23.5t-8 -29.5t-4 -40z" />
    <glyph glyph-name="ccedilla" unicode="&#xe7;" horiz-adv-x="296" 
d="M272 306v-118h-16v27q-22 33 -50 47.5t-46 14.5q-12 0 -19 -6t-12.5 -36.5t-5.5 -89.5q0 -65 4.5 -93t14 -35.5t33.5 -7.5q67 0 114 50l10 -10q-51 -58 -121 -57l-8 -33q45 -15 45 -50q0 -25 -23 -43.5t-67 -11.5l4 20q20 -5 40 3.5t20 29.5q0 13 -10 21t-15.5 9.5
t-19.5 4.5l12 52q-65 10 -97 54.5t-32 96.5q0 60 40 104t105 44q41 0 84 -17v30h16z" />
    <glyph glyph-name="egrave" unicode="&#xe8;" horiz-adv-x="333" 
d="M315 161h-191q-4 -66 2.5 -100t19.5 -43t39 -9q28 0 64 16.5t66 57.5h9v-36q-67 -55 -142 -55q-73 0 -114 45t-41 103q0 59 43 106t112 47q75 0 111 -52q22 -34 22 -80zM124 177h138q8 100 -68 100q-23 0 -36.5 -5.5t-20.5 -22t-9 -29t-4 -43.5zM119 452l102 -107
l-12 -13l-111 96z" />
    <glyph glyph-name="eacute" unicode="&#xe9;" horiz-adv-x="333" 
d="M315 161h-191q-4 -66 2.5 -100t19.5 -43t39 -9q28 0 64 16.5t66 57.5h9v-36q-67 -55 -142 -55q-73 0 -114 45t-41 103q0 59 43 106t112 47q75 0 111 -52q22 -34 22 -80zM124 177h138q8 100 -68 100q-23 0 -36.5 -5.5t-20.5 -22t-9 -29t-4 -43.5zM262 454l24 -22
l-107 -101l-13 12z" />
    <glyph glyph-name="ecircumflex" unicode="&#xea;" horiz-adv-x="333" 
d="M315 161h-191q-4 -66 2.5 -100t19.5 -43t39 -9q28 0 64 16.5t66 57.5h9v-36q-67 -55 -142 -55q-73 0 -114 45t-41 103q0 59 43 106t112 47q75 0 111 -52q22 -34 22 -80zM124 177h138q8 100 -68 100q-23 0 -36.5 -5.5t-20.5 -22t-9 -29t-4 -43.5zM201 441l79 -98h-22
l-68 69l-69 -69h-22l79 98h23z" />
    <glyph glyph-name="edieresis" unicode="&#xeb;" horiz-adv-x="333" 
d="M315 161h-191q-4 -66 2.5 -100t19.5 -43t39 -9q28 0 64 16.5t66 57.5h9v-36q-67 -55 -142 -55q-73 0 -114 45t-41 103q0 59 43 106t112 47q75 0 111 -52q22 -34 22 -80zM124 177h138q8 100 -68 100q-23 0 -36.5 -5.5t-20.5 -22t-9 -29t-4 -43.5zM120 404h37v-38h-37v38z
M222 404h37v-38h-37v38z" />
    <glyph glyph-name="igrave" unicode="&#xec;" horiz-adv-x="222" 
d="M155 270v-254h55v-16h-198v16h55v254h-55v15h165v-15h-22zM41 452l101 -107l-12 -13l-111 96z" />
    <glyph glyph-name="iacute" unicode="&#xed;" horiz-adv-x="222" 
d="M155 270v-254h55v-16h-198v16h55v254h-55v15h165v-15h-22zM183 454l25 -22l-107 -101l-13 12z" />
    <glyph glyph-name="icircumflex" unicode="&#xee;" horiz-adv-x="222" 
d="M155 270v-254h55v-16h-198v16h55v254h-55v15h165v-15h-22zM120 441l79 -98h-22l-68 69l-68 -69h-23l80 98h22z" />
    <glyph glyph-name="idieresis" unicode="&#xef;" horiz-adv-x="222" 
d="M155 270v-254h55v-16h-198v16h55v254h-55v15h165v-15h-22zM42 404h37v-38h-37v38zM144 404h36v-38h-36v38z" />
    <glyph glyph-name="eth" unicode="&#xf0;" horiz-adv-x="370" 
d="M218 463l-91 -48l-7 14l94 50q-11 56 -28 102l14 2l44 -88l92 48l7 -13l-92 -49q92 -182 92 -332q0 -70 -40.5 -113.5t-115.5 -43.5q-45 0 -78 14.5t-50 38.5t-24.5 48t-7.5 48q0 72 47 112t109 40q32 0 60 -18q-11 115 -25 188zM246 144q0 81 -11 107t-53 26
q-34 0 -46.5 -24.5t-12.5 -104.5q0 -91 10.5 -115t47.5 -24q44 0 54.5 26.5t10.5 108.5z" />
    <glyph glyph-name="ntilde" unicode="&#xf1;" horiz-adv-x="407" 
d="M155 285v-67q44 75 100 75q37 0 60 -26q20 -22 27 -42.5t7 -53.5v-155h55v-16h-143v231q0 15 -0.5 22t-5.5 14t-14 7q-7 0 -17 -3.5t-30.5 -27.5t-38.5 -65v-162h55v-16h-198v16h55v254h-55v15h143zM291 414l16 -13q-28 -33 -58 -33q-12 0 -50 23q-14 9 -28 9
q-29 0 -53 -30l-17 13q31 39 70 39q21 0 46 -17q22 -15 33 -15q20 0 41 24z" />
    <glyph glyph-name="ograve" unicode="&#xf2;" horiz-adv-x="370" 
d="M182 293q67 0 114 -41t47 -110q0 -24 -7.5 -48t-24 -48t-48.5 -39t-76 -15q-45 0 -78 14.5t-50 38t-24.5 47.5t-7.5 49q0 72 47 112t108 40zM181 277q-33 0 -45.5 -25.5t-12.5 -104.5q0 -90 10.5 -114t47.5 -24q42 0 53.5 25t11.5 99q0 91 -10.5 117.5t-54.5 26.5z
M126 452l102 -107l-12 -13l-111 96z" />
    <glyph glyph-name="oacute" unicode="&#xf3;" horiz-adv-x="370" 
d="M182 293q67 0 114 -41t47 -110q0 -24 -7.5 -48t-24 -48t-48.5 -39t-76 -15q-45 0 -78 14.5t-50 38t-24.5 47.5t-7.5 49q0 72 47 112t108 40zM181 277q-33 0 -45.5 -25.5t-12.5 -104.5q0 -90 10.5 -114t47.5 -24q42 0 53.5 25t11.5 99q0 91 -10.5 117.5t-54.5 26.5z
M257 454l25 -22l-107 -101l-13 12z" />
    <glyph glyph-name="ocircumflex" unicode="&#xf4;" horiz-adv-x="370" 
d="M182 293q67 0 114 -41t47 -110q0 -24 -7.5 -48t-24 -48t-48.5 -39t-76 -15q-45 0 -78 14.5t-50 38t-24.5 47.5t-7.5 49q0 72 47 112t108 40zM181 277q-33 0 -45.5 -25.5t-12.5 -104.5q0 -90 10.5 -114t47.5 -24q42 0 53.5 25t11.5 99q0 91 -10.5 117.5t-54.5 26.5z
M196 441l80 -98h-23l-68 69l-68 -69h-22l79 98h22z" />
    <glyph glyph-name="otilde" unicode="&#xf5;" horiz-adv-x="370" 
d="M182 293q67 0 114 -41t47 -110q0 -24 -7.5 -48t-24 -48t-48.5 -39t-76 -15q-45 0 -78 14.5t-50 38t-24.5 47.5t-7.5 49q0 72 47 112t108 40zM181 277q-33 0 -45.5 -25.5t-12.5 -104.5q0 -90 10.5 -114t47.5 -24q42 0 53.5 25t11.5 99q0 91 -10.5 117.5t-54.5 26.5z
M278 414l16 -13q-28 -33 -58 -33q-12 0 -50 23q-14 9 -28 9q-29 0 -53 -30l-17 13q31 39 71 39q20 0 46 -17q22 -15 32 -15q20 0 41 24z" />
    <glyph glyph-name="odieresis" unicode="&#xf6;" horiz-adv-x="370" 
d="M182 293q67 0 114 -41t47 -110q0 -24 -7.5 -48t-24 -48t-48.5 -39t-76 -15q-45 0 -78 14.5t-50 38t-24.5 47.5t-7.5 49q0 72 47 112t108 40zM181 277q-33 0 -45.5 -25.5t-12.5 -104.5q0 -90 10.5 -114t47.5 -24q42 0 53.5 25t11.5 99q0 91 -10.5 117.5t-54.5 26.5z
M116 404h37v-38h-37v38zM218 404h36v-38h-36v38z" />
    <glyph glyph-name="divide" unicode="&#xf7;" 
d="M432 254h-401v28h401v-28zM211 422h41v-42h-41v42zM211 156h41v-42h-41v42z" />
    <glyph glyph-name="oslash" unicode="&#xf8;" horiz-adv-x="370" 
d="M234 286l18 43h15l-19 -48q95 -39 95 -139q0 -24 -7.5 -48t-24 -48t-48.5 -39t-76 -15q-29 0 -53 6l-18 -44h-15l19 48q-93 38 -93 139q0 73 47.5 112.5t107.5 39.5q24 0 52 -7zM133 34l93 230q-21 13 -43 13q-34 0 -47 -24t-13 -104q0 -88 10 -115zM236 251l-94 -232
q17 -10 38 -10q43 0 54.5 25t11.5 103q0 84 -10 114z" />
    <glyph glyph-name="ugrave" unicode="&#xf9;" horiz-adv-x="408" 
d="M340 285v-269h55v-16h-142v47q-19 -20 -30 -29.5t-30.5 -17.5t-43.5 -8q-32 0 -51.5 8.5t-27.5 27t-9.5 32t-1.5 40.5v170h-55v15h142v-214q0 -19 0.5 -27t2.5 -17.5t7 -12.5t13 -3q23 0 47.5 21t36.5 45v193h-56v15h143zM133 452l102 -107l-12 -13l-111 96z" />
    <glyph glyph-name="uacute" unicode="&#xfa;" horiz-adv-x="408" 
d="M340 285v-269h55v-16h-142v47q-19 -20 -30 -29.5t-30.5 -17.5t-43.5 -8q-32 0 -51.5 8.5t-27.5 27t-9.5 32t-1.5 40.5v170h-55v15h142v-214q0 -19 0.5 -27t2.5 -17.5t7 -12.5t13 -3q23 0 47.5 21t36.5 45v193h-56v15h143zM276 454l24 -22l-106 -101l-13 12z" />
    <glyph glyph-name="ucircumflex" unicode="&#xfb;" horiz-adv-x="408" 
d="M340 285v-269h55v-16h-142v47q-19 -20 -30 -29.5t-30.5 -17.5t-43.5 -8q-32 0 -51.5 8.5t-27.5 27t-9.5 32t-1.5 40.5v170h-55v15h142v-214q0 -19 0.5 -27t2.5 -17.5t7 -12.5t13 -3q23 0 47.5 21t36.5 45v193h-56v15h143zM204 441l79 -98h-22l-69 69l-68 -69h-22l79 98
h23z" />
    <glyph glyph-name="udieresis" unicode="&#xfc;" horiz-adv-x="408" 
d="M340 285v-269h55v-16h-142v47q-19 -20 -30 -29.5t-30.5 -17.5t-43.5 -8q-32 0 -51.5 8.5t-27.5 27t-9.5 32t-1.5 40.5v170h-55v15h142v-214q0 -19 0.5 -27t2.5 -17.5t7 -12.5t13 -3q23 0 47.5 21t36.5 45v193h-56v15h143zM123 404h37v-38h-37v38zM225 404h37v-38h-37v38z
" />
    <glyph glyph-name="yacute" unicode="&#xfd;" horiz-adv-x="407" 
d="M264 270h-56v15h143v-224q1 -72 4 -83q1 -9 6 -21q-56 -109 -165 -109q-66 0 -110 39l26 37l7 -4q7 -20 35.5 -38t53.5 -18q14 0 27.5 7.5t18.5 19.5q9 18 9 78v79q-44 -52 -101 -52q-61 0 -81 36q-10 16 -12 32t-2 55v151h-55v15h143v-202q0 -43 4 -55.5t23 -12.5
q22 0 45 19.5t37 48.5v187zM276 454l24 -22l-107 -101l-13 12z" />
    <glyph glyph-name="thorn" unicode="&#xfe;" horiz-adv-x="408" 
d="M12 -142v16h55v892h-55v16h143v-532q40 43 88 43q49 0 91.5 -40.5t42.5 -105.5q0 -66 -43 -110.5t-101 -44.5q-45 0 -78 36v-154h55v-16h-198zM155 226v-173q31 -44 74 -44q31 0 40 28q11 35 11 113q0 64 -11 95.5t-38 31.5q-36 0 -76 -51z" />
    <glyph glyph-name="ydieresis" unicode="&#xff;" horiz-adv-x="407" 
d="M264 270h-56v15h143v-224q1 -72 4 -83q1 -9 6 -21q-56 -109 -165 -109q-66 0 -110 39l26 37l7 -4q7 -20 35.5 -38t53.5 -18q14 0 27.5 7.5t18.5 19.5q9 18 9 78v79q-44 -52 -101 -52q-61 0 -81 36q-10 16 -12 32t-2 55v151h-55v15h143v-202q0 -43 4 -55.5t23 -12.5
q22 0 45 19.5t37 48.5v187zM135 404h37v-38h-37v38zM236 404h37v-38h-37v38z" />
    <glyph glyph-name="dotlessi" unicode="&#x131;" horiz-adv-x="222" 
d="M155 270v-254h55v-16h-198v16h55v254h-55v15h165v-15h-22z" />
    <glyph glyph-name="Lslash" unicode="&#x141;" horiz-adv-x="444" 
d="M199 346l107 111l13 -12l-120 -124v-305h22q92 0 188 49v40h16v-133h-16v28h-383v16h71v226l-70 -72l-12 12l82 84v508h-71v16h256v-16h-83v-428z" />
    <glyph glyph-name="lslash" unicode="&#x142;" horiz-adv-x="241" 
d="M164 357l80 88l13 -11l-93 -103v-315h55v-16h-197v16h55v244l-81 -89l-12 12l93 103v480h-55v16h142v-425z" />
    <glyph glyph-name="OE" unicode="&#x152;" horiz-adv-x="852" 
d="M574 774v-493h14q87 0 148 20v39h15v-141h-15v38q-73 28 -148 28h-14v-249h22q70 0 131.5 15t95.5 37v36h16v-128h-16v24h-385q-111 0 -169.5 15t-112.5 66q-124 117 -124 307q0 129 57.5 224t136.5 139q32 18 70.5 27t64.5 10.5t77 1.5h384l-1 22h16l2 -124h-16l-1 32
q-79 54 -234 54h-14zM472 16v758h-49q-36 0 -59 -1.5t-54 -9t-50.5 -21.5t-41 -40.5t-33.5 -64.5t-20 -94.5t-8 -129.5q0 -67 6 -119q12 -116 44 -180q31 -59 79.5 -78.5t151.5 -19.5h34z" />
    <glyph glyph-name="oe" unicode="&#x153;" horiz-adv-x="537" 
d="M520 160h-186q-4 -63 3 -107q6 -45 56 -45q12 0 29.5 4.5t46.5 23t50 47.5h9v-36q-69 -55 -136 -55q-61 0 -107 37q-49 -37 -104 -37q-71 0 -112.5 44t-41.5 106q0 72 47 111.5t107 39.5q54 0 104 -40q53 40 105 40q15 0 31.5 -4t40 -16t39.5 -41t19 -72zM178 277
q-32 0 -43.5 -28t-11.5 -98q0 -80 9.5 -111t44.5 -31q21 0 34.5 11.5t18.5 36.5t6 42.5t1 51.5q0 70 -11 98t-48 28zM334 176h131q10 101 -67 101q-38 0 -54 -32q-7 -13 -10 -69z" />
    <glyph glyph-name="Scaron" unicode="&#x160;" horiz-adv-x="482" 
d="M427 804l2 -179h-16v48q-30 48 -86 79.5t-103 31.5q-51 0 -86.5 -36t-35.5 -105q0 -47 20 -85.5t52 -68t94 -74.5q54 -39 79 -59t54 -51t40 -62.5t11 -71.5q0 -81 -58.5 -132t-139.5 -51q-92 0 -156 34v-65h-16v197h16v-49q34 -48 80 -74t87 -26q29 0 50 12.5t31 32
t14.5 37.5t4.5 34q0 57 -38.5 104t-120.5 107q-53 39 -74 55t-44.5 42.5t-37.5 57.5q-20 45 -20 92q0 36 13.5 73.5t39 71.5t70.5 55.5t102 21.5q91 0 157 -36l-1 39h16zM248 845l-89 85h22l83 -57l82 57h22l-89 -85h-31z" />
    <glyph glyph-name="scaron" unicode="&#x161;" horiz-adv-x="278" 
d="M128 343l-80 98h23l68 -70l68 70h23l-80 -98h-22zM229 308l2 -112h-16l-1 29q-37 54 -75 54q-36 0 -36 -34q0 -20 16 -34t57 -36q45 -24 63 -46t18 -51q0 -32 -26 -59t-87 -27q-50 0 -92 21v-26h-16v102h16v-33q48 -47 92 -47q21 0 29.5 10t8.5 22q0 20 -20.5 37
t-69.5 44q-64 37 -64 87q0 35 28.5 59.5t79.5 24.5q44 0 78 -15l-1 30h16z" />
    <glyph glyph-name="Ydieresis" unicode="&#x178;" horiz-adv-x="611" 
d="M169 774l189 -452q41 101 76 240.5t42 211.5h-68v16h217v-16h-64q-52 -111 -90 -206l-108 -276v-276h89v-16h-272v16h80v265l-204 493h-70v16h263v-16h-80zM275 901h39v-40h-39v40zM377 901h38v-40h-38v40z" />
    <glyph glyph-name="Zcaron" unicode="&#x17d;" horiz-adv-x="574" 
d="M523 774l-366 -758h34q78 0 177 13.5t166 45.5l2 44h16l-5 -151h-16l1 26q-39 6 -250 6h-266v16h30l363 758h-25q-71 0 -165 -17q-61 -10 -114 -38l-1 -37h-16l2 126h16l-1 -18h454v-16h-36zM294 845l-88 85h21l83 -57l83 57h21l-88 -85h-32z" />
    <glyph glyph-name="zcaron" unicode="&#x17e;" horiz-adv-x="352" 
d="M334 281l-194 -262q74 -2 146 27l2 31h16l-8 -106h-17l2 26q-46 6 -124 6q-70 0 -139 -3l191 261q-74 0 -138 -28l-2 -31h-16l6 101l16 1l-1 -20q43 -6 155 -6q57 0 105 3zM176 343l-79 98h22l68 -70l68 70h23l-80 -98h-22z" />
    <glyph glyph-name="florin" unicode="&#x192;" 
d="M373 553h125l-7 -16h-124l-235 -586q-16 -42 -26.5 -63.5t-30.5 -50.5t-46.5 -42t-61.5 -13q-39 0 -60 19.5t-21 45.5t26 64l12 -9q-21 -32 -21 -52q0 -6 1.5 -13t10.5 -16.5t25 -9.5q21 0 36 15q19 20 78 166l218 545h-58l7 16h57l19 50q29 75 68.5 121.5t72.5 61.5
t67 15q73 0 73 -59q0 -16 -7 -32h-17q7 21 7 33q0 36 -38 36q-17 0 -33 -10.5t-27.5 -24t-25.5 -42t-23 -49.5t-25 -61z" />
    <glyph glyph-name="circumflex" unicode="&#x2c6;" horiz-adv-x="500" 
d="M261 441l80 -98h-23l-68 69l-68 -69h-22l79 98h22z" />
    <glyph glyph-name="caron" unicode="&#x2c7;" horiz-adv-x="500" 
d="M239 343l-79 98h22l68 -70l68 70h23l-80 -98h-22z" />
    <glyph glyph-name="uni02C9" unicode="&#x2c9;" horiz-adv-x="500" 
d="M349 381h-198v21h198v-21z" />
    <glyph glyph-name="breve" unicode="&#x2d8;" horiz-adv-x="500" 
d="M304 431h22q-8 -79 -76 -79t-76 79h22q7 -55 54 -55q21 0 33.5 11t15.5 20t5 24z" />
    <glyph glyph-name="dotaccent" unicode="&#x2d9;" horiz-adv-x="500" 
d="M230 406h41v-42h-41v42z" />
    <glyph glyph-name="ring" unicode="&#x2da;" horiz-adv-x="500" 
d="M250 462q28 0 48 -20t20 -48q0 -29 -20.5 -48.5t-47.5 -19.5q-28 0 -48 20t-20 48q0 27 19.5 47.5t48.5 20.5zM250 442q-20 0 -34 -14t-14 -34t14 -34t34 -14q21 0 34.5 14t13.5 34t-14 34t-34 14z" />
    <glyph glyph-name="ogonek" unicode="&#x2db;" horiz-adv-x="500" 
d="M305 2l23 -2q-38 -32 -38 -64q0 -18 11 -28.5t29 -10.5q15 0 34 7l8 -17q-22 -11 -47 -11q-24 0 -42 14.5t-18 42.5q0 39 40 69z" />
    <glyph glyph-name="tilde" unicode="&#x2dc;" horiz-adv-x="500" 
d="M337 414l16 -13q-28 -33 -58 -33q-12 0 -50 23q-14 9 -28 9q-29 0 -53 -30l-17 13q31 39 71 39q20 0 46 -17q22 -15 32 -15q20 0 41 24z" />
    <glyph glyph-name="hungarumlaut" unicode="&#x2dd;" horiz-adv-x="500" 
d="M256 446l27 -14l-71 -107l-11 6zM339 446l26 -14l-71 -107l-11 6z" />
    <glyph glyph-name="uni03A9" unicode="&#x3a9;" horiz-adv-x="790" 
d="M33 0v26h256q-112 62 -184 164t-72 235q0 165 105 274.5t257 109.5t256.5 -109.5t104.5 -274.5q0 -136 -73 -237.5t-182 -161.5h255v-26h-300v25q120 68 179 142q94 117 94 258q0 145 -93.5 251.5t-239.5 106.5q-99 0 -177 -51t-118 -132t-40 -175q0 -174 134 -302
q51 -48 139 -98v-25h-301z" />
    <glyph glyph-name="uni03BC" unicode="&#x3bc;" horiz-adv-x="402" 
d="M334 285v-269h56v-16h-140v47q-30 -31 -50.5 -42.5t-56.5 -12.5v-142h-84v420h-55v15h139v-214q0 -19 0.5 -27t2.5 -17.5t7 -12.5t13 -3q23 0 47.5 21t35.5 45v193h-55v15h140z" />
    <glyph glyph-name="pi" unicode="&#x3c0;" horiz-adv-x="600" 
d="M109 0v541h-86v25h554v-25h-85v-541h-28v541h-328v-541h-27z" />
    <glyph glyph-name="endash" unicode="&#x2013;" horiz-adv-x="444" 
d="M21 161h403v-27h-403v27z" />
    <glyph glyph-name="emdash" unicode="&#x2014;" horiz-adv-x="611" 
d="M22 161h567v-27h-567v27z" />
    <glyph glyph-name="quoteleft" unicode="&#x2018;" horiz-adv-x="185" 
d="M87 742q34 1 51 -16t17 -42q0 -29 -18.5 -45t-41.5 -16q-29 0 -47 21.5t-18 47.5q0 41 31 76.5t71 35.5q10 0 22 -4q-15 -4 -24.5 -8t-22 -17t-20.5 -33z" />
    <glyph glyph-name="quoteright" unicode="&#x2019;" horiz-adv-x="185" 
d="M98 683q-32 -2 -50 15t-18 43q0 29 18.5 44.5t41.5 15.5q29 0 47 -21t18 -47q0 -42 -31.5 -77t-70.5 -35q-8 0 -22 4q48 11 67 58z" />
    <glyph glyph-name="quotesinglbase" unicode="&#x201a;" horiz-adv-x="185" 
d="M98 -6q-33 -1 -50.5 16.5t-17.5 41.5q0 28 18.5 44.5t41.5 16.5q29 0 47 -21.5t18 -47.5q0 -42 -31.5 -77t-71.5 -35q-5 0 -21 4q48 12 67 58z" />
    <glyph glyph-name="quotedblleft" unicode="&#x201c;" horiz-adv-x="352" 
d="M254 742q34 1 51 -16.5t17 -41.5q0 -28 -18 -44.5t-42 -16.5q-29 0 -47 21.5t-18 47.5q0 41 31 76.5t72 35.5q5 0 21 -4q-15 -4 -25 -8.5t-22 -17t-20 -32.5zM87 742q34 1 51 -16t17 -42q0 -29 -18.5 -45t-41.5 -16q-29 0 -47 21.5t-18 47.5q0 41 31 76.5t71 35.5
q10 0 22 -4q-15 -4 -24.5 -8t-22 -17t-20.5 -33z" />
    <glyph glyph-name="quotedblright" unicode="&#x201d;" horiz-adv-x="352" 
d="M98 683q-32 -2 -50 15t-18 43q0 29 18.5 44.5t41.5 15.5q29 0 47 -21t18 -47q0 -42 -31.5 -77t-70.5 -35q-8 0 -22 4q48 11 67 58zM265 683q-32 -2 -50 15.5t-18 42.5q0 28 18.5 44t41.5 16q29 0 47 -21.5t18 -46.5q0 -42 -31.5 -77t-70.5 -35q-10 0 -22 4q48 11 67 58z
" />
    <glyph glyph-name="quotedblbase" unicode="&#x201e;" horiz-adv-x="352" 
d="M98 -6q-33 -1 -50.5 16.5t-17.5 41.5q0 28 18.5 44.5t41.5 16.5q29 0 47 -21.5t18 -47.5q0 -42 -31.5 -77t-71.5 -35q-5 0 -21 4q48 12 67 58zM265 -6q-34 -1 -51 16.5t-17 41.5q0 28 18 44.5t42 16.5q29 0 47 -21.5t18 -47.5q0 -41 -31.5 -76.5t-71.5 -35.5q-5 0 -21 4
q47 12 67 58z" />
    <glyph glyph-name="dagger" unicode="&#x2020;" 
d="M245 557h172v-27h-172v-570h-27v570h-172v27h172v233h27v-233z" />
    <glyph glyph-name="daggerdbl" unicode="&#x2021;" 
d="M245 557h172v-27h-172v-271h172v-27h-172v-272h-27v272h-172v27h172v271h-172v27h172v233h27v-233z" />
    <glyph glyph-name="bullet" unicode="&#x2022;" horiz-adv-x="185" 
d="M93 344q26 0 45 -19t19 -46q0 -26 -19 -45.5t-45 -19.5q-27 0 -46 19t-19 46t19 46t46 19z" />
    <glyph glyph-name="ellipsis" unicode="&#x2026;" horiz-adv-x="556" 
d="M93 113q25 0 43 -18t18 -44q0 -25 -18 -43t-43 -18q-26 0 -44 18t-18 43t18 43.5t44 18.5zM278 113q25 0 43 -18t18 -44q0 -25 -17.5 -43t-43.5 -18t-44 18t-18 43t18 43.5t44 18.5zM463 113q25 0 43 -18t18 -44q0 -25 -17.5 -43t-43.5 -18t-44 18t-18 43t18 43.5
t44 18.5z" />
    <glyph glyph-name="perthousand" unicode="&#x2030;" horiz-adv-x="871" 
d="M157 734q65 0 112 -41.5t47 -108.5q0 -66 -44.5 -108.5t-111.5 -42.5q-71 0 -115 44t-44 106q0 70 58 119q39 32 98 32zM158 719q-40 0 -52.5 -29t-12.5 -112q0 -76 9 -99q15 -31 54 -31q23 0 37 9t20 31t7 39t1 53q0 87 -13.5 113t-49.5 26zM358 294q65 0 112.5 -42
t47.5 -109q0 -65 -45 -108t-111 -43q-73 0 -116 45t-43 106q0 56 40.5 103.5t114.5 47.5zM360 278q-40 0 -52.5 -29t-12.5 -113q0 -29 0.5 -43t3.5 -34t9.5 -28.5t18.5 -15.5t30 -7q23 0 37 9t20 31t7 39.5t1 53.5q0 85 -13 111t-49 26zM702 294q65 0 112.5 -42t47.5 -108
t-45 -109t-112 -43q-72 0 -115.5 44.5t-43.5 106.5q0 56 41 103.5t115 47.5zM703 278q-40 0 -52 -29t-12 -113q0 -77 8 -97q14 -31 54 -31q23 0 37 9t20 31t7 39t1 53q0 86 -13.5 112t-49.5 26zM517 758l-491 -786l-19 13l492 786z" />
    <glyph glyph-name="guilsinglleft" unicode="&#x2039;" horiz-adv-x="278" 
d="M96 324l154 -190l-68 -55l-164 202l232 187l10 -12z" />
    <glyph glyph-name="guilsinglright" unicode="&#x203a;" horiz-adv-x="278" 
d="M182 222l-154 189l68 56l164 -202l-232 -188l-10 12z" />
    <glyph glyph-name="fraction" unicode="&#x2044;" horiz-adv-x="56" 
d="M239 615l-402 -643l-19 13l403 643z" />
    <glyph glyph-name="Euro" unicode="&#x20ac;" 
d="M353 208h-173q0 -108 7 -132q9 -28 47 -47.5t79 -19.5q11 0 21 1t20 4.5t17 5.5t16.5 8t14 8.5t13.5 10t11.5 9t11.5 10t10 9.5l-10 -65q-67 -18 -107 -18q-110 0 -175 66q-58 58 -77 150h-67v15h64q-4 30 -5 47h-59v15h59q0 78 26 147.5t84 118.5t136 49q53 0 112 -25
v27h15v-129h-15v17q0 8 -4 16q-8 17 -28 34q-38 35 -99 35q-35 0 -63.5 -14t-37.5 -37q-17 -46 -17 -239h173v-15h-173v-47h173v-15z" />
    <glyph glyph-name="afii61289" unicode="&#x2113;" horiz-adv-x="362" 
d="M329 114l19 -17q-54 -104 -150 -104q-63 0 -92 34q-16 20 -23 46t-7 79v62l-48 -33l-11 24l59 45v115q0 94 9 138.5t35 77.5q37 49 87 49q40 0 62 -33t22 -83q0 -70 -30.5 -126t-92.5 -118v-72q0 -82 16 -114t54 -32q48 0 91 62zM168 412v-97q70 82 70 197q0 89 -35 89
q-21 0 -28 -38.5t-7 -150.5z" />
    <glyph glyph-name="trademark" unicode="&#x2122;" horiz-adv-x="720" 
d="M173 768v-332h41v-14h-148v14h41v332q-32 -3 -63 -19v-25h-14v70h14v-12h192v12h14v-70h-14v25q-22 13 -63 19zM371 782l122 -201l87 201h116v-14h-40v-332h40v-14h-145v14h39v334l-116 -276l-127 207v-69q2 -153 14 -196h38v-14h-115v14h38q10 60 10 196v94l-25 42h-39
v14h103z" />
    <glyph glyph-name="Omega" unicode="&#x2126;" horiz-adv-x="790" 
d="M33 0v26h256q-112 62 -184 164t-72 235q0 165 105 274.5t257 109.5t256.5 -109.5t104.5 -274.5q0 -136 -73 -237.5t-182 -161.5h255v-26h-300v25q120 68 179 142q94 117 94 258q0 145 -93.5 251.5t-239.5 106.5q-99 0 -177 -51t-118 -132t-40 -175q0 -174 134 -302
q51 -48 139 -98v-25h-301z" />
    <glyph glyph-name="estimated" unicode="&#x212e;" horiz-adv-x="732" 
d="M703 287h-546q-5 0 -5 -4v-165q0 -8 7 -19q87 -90 207 -90q129 0 217 101h49q-46 -54 -116.5 -85.5t-150.5 -31.5q-140 0 -238.5 88.5t-98.5 213.5q0 126 98.5 215t238.5 89t239 -89t99 -215v-8zM579 309v166q0 11 -8 19q-87 87 -205 87q-119 0 -206 -89q-8 -10 -8 -21
v-162q0 -6 5 -6h418q4 0 4 6z" />
    <glyph glyph-name="partialdiff" unicode="&#x2202;" horiz-adv-x="370" 
d="M186 581l14 2q45 -88 68.5 -139.5t49 -137.5t25.5 -157q0 -70 -40.5 -113.5t-115.5 -43.5q-45 0 -78 14.5t-50 38.5t-24.5 48t-7.5 48q0 72 47 112t109 40q32 0 60 -18q-20 202 -57 306zM246 144q0 81 -11 107t-53 26q-34 0 -46.5 -24.5t-12.5 -104.5q0 -91 10.5 -115
t47.5 -24q44 0 54.5 26.5t10.5 108.5z" />
    <glyph glyph-name="Delta" unicode="&#x2206;" horiz-adv-x="790" 
d="M44 0l337 790h28l337 -790h-702zM395 756l-311 -730h622z" />
    <glyph glyph-name="product" unicode="&#x220f;" horiz-adv-x="793" 
d="M40 790h713v-26h-90v-1133h90v-26h-218v26h100v1133h-478v-1133h100v-26h-217v26h90v1133h-90v26z" />
    <glyph glyph-name="summation" unicode="&#x2211;" horiz-adv-x="790" 
d="M686 790v-248h-27l-1 221h-588l302 -539l-302 -593h599l1 219h27v-245h-656v31l299 588l-299 538v28h645z" />
    <glyph glyph-name="minus" unicode="&#x2212;" 
d="M432 254h-401v28h401v-28z" />
    <glyph glyph-name="uni2215" unicode="&#x2215;" horiz-adv-x="56" 
d="M239 615l-402 -643l-19 13l403 643z" />
    <glyph glyph-name="uni2219" unicode="&#x2219;" horiz-adv-x="185" 
d="M93 293q25 0 43 -18t18 -44q0 -25 -18 -43.5t-43 -18.5q-26 0 -44 18.5t-18 43.5t18 43.5t44 18.5z" />
    <glyph glyph-name="radical" unicode="&#x221a;" horiz-adv-x="790" 
d="M790 979v-25h-251l-307 -954h-22l-123 383h-87v26h108l113 -350l296 920h273z" />
    <glyph glyph-name="infinity" unicode="&#x221e;" horiz-adv-x="790" 
d="M395 382q-19 -29 -33.5 -48t-41 -46.5t-59.5 -42t-70 -14.5q-80 0 -123.5 51t-43.5 124q0 82 50.5 126t117.5 44q37 0 70.5 -15t60.5 -44t40 -46t32 -46q49 76 95.5 113.5t110.5 37.5q77 0 121 -50.5t44 -123.5q0 -82 -49 -126.5t-116 -44.5q-65 0 -112.5 39t-93.5 112z
M410 404q50 -80 93.5 -113.5t97.5 -33.5q61 0 99 41t38 106q0 73 -43 110t-95 37q-27 0 -53 -10.5t-43.5 -23.5t-38 -36.5t-30 -37.5t-25.5 -39zM380 403q-52 83 -96.5 115.5t-95.5 32.5q-61 0 -98.5 -41.5t-37.5 -105.5q0 -74 43 -110.5t95 -36.5q34 0 63 12.5t54 39
t38.5 44t34.5 50.5z" />
    <glyph glyph-name="integral" unicode="&#x222b;" horiz-adv-x="592" 
d="M162 -283l11 25q26 -13 44 -13q19 0 31.5 7t19.5 15.5t10 28.5t3.5 34.5t0.5 45.5v870q2 68 4 86t11 33q23 40 79 40q23 0 55 -14l-12 -24q-22 12 -44 12q-46 0 -59 -38q-6 -19 -6 -95v-867q0 -63 -3 -85t-13 -37q-25 -37 -79 -37q-25 0 -53 13z" />
    <glyph glyph-name="approxequal" unicode="&#x2248;" 
d="M29 258l-22 14q51 100 122 100q38 0 109 -39q66 -35 97 -35q32 0 54 21t45 67l22 -14q-52 -100 -122 -100q-33 0 -77 23q-70 36 -89 44t-39 8q-34 0 -57 -24.5t-43 -64.5zM29 131l-22 14q24 47 52 74t70 27q34 0 109 -39q65 -36 97 -36t54 22t45 66l22 -14
q-10 -19 -18.5 -32.5t-24 -31t-35.5 -27t-44 -9.5q-31 0 -81 25q-67 35 -85.5 42.5t-39.5 7.5q-31 0 -54 -22.5t-45 -66.5z" />
    <glyph glyph-name="notequal" unicode="&#x2260;" 
d="M274 327h161v-28h-174l-29 -62h203v-28h-216l-57 -123l-27 2l56 121h-156v28h169l30 62h-199v28h211l63 133l27 -2z" />
    <glyph glyph-name="lessequal" unicode="&#x2264;" horiz-adv-x="592" 
d="M505 490v-28l-377 -161l377 -162v-29l-408 176v28zM496 29v-25h-399v25h399z" />
    <glyph glyph-name="greaterequal" unicode="&#x2265;" horiz-adv-x="592" 
d="M87 110v29l377 162l-377 161v28l409 -176v-28zM97 4v25h399v-25h-399z" />
    <glyph glyph-name="lozenge" unicode="&#x25ca;" horiz-adv-x="790" 
d="M395 821l307 -426l-307 -425l-308 425zM628 395l-233 321l-234 -321l234 -321z" />
    </font>
</defs>
</svg>
